<svg width="0" height="0" class="hidden">
  <symbol xmlns="http://www.w3.org/2000/svg" xmlns:xlink="http://www.w3.org/1999/xlink" version="1.1" id="menu-burger" x="0px" y="0px" xml:space="preserve" viewBox="0 0 512 512">
    <g>
      <path d="M480,224H32c-17.673,0-32,14.327-32,32s14.327,32,32,32h448c17.673,0,32-14.327,32-32S497.673,224,480,224z"></path>
      <path d="M32,138.667h448c17.673,0,32-14.327,32-32s-14.327-32-32-32H32c-17.673,0-32,14.327-32,32S14.327,138.667,32,138.667z"></path>
      <path d="M480,373.333H32c-17.673,0-32,14.327-32,32s14.327,32,32,32h448c17.673,0,32-14.327,32-32S497.673,373.333,480,373.333z"></path>
    </g>
  </symbol>
  <symbol xmlns="http://www.w3.org/2000/svg" xmlns:xlink="http://www.w3.org/1999/xlink" version="1.1" id="cross" x="0px" y="0px" xml:space="preserve" viewBox="0 0 512.021 512.021">
    <g>
      <path d="M301.258,256.01L502.645,54.645c12.501-12.501,12.501-32.769,0-45.269c-12.501-12.501-32.769-12.501-45.269,0l0,0   L256.01,210.762L54.645,9.376c-12.501-12.501-32.769-12.501-45.269,0s-12.501,32.769,0,45.269L210.762,256.01L9.376,457.376   c-12.501,12.501-12.501,32.769,0,45.269s32.769,12.501,45.269,0L256.01,301.258l201.365,201.387   c12.501,12.501,32.769,12.501,45.269,0c12.501-12.501,12.501-32.769,0-45.269L301.258,256.01z"></path>
    </g>
  </symbol>
  <symbol id="magic-wand" xmlns="http://www.w3.org/2000/svg" viewBox="0 0 24 24">
    <path d="m18 9.064a3.049 3.049 0 0 0 -.9-2.164 3.139 3.139 0 0 0 -4.334 0l-11.866 11.869a3.064 3.064 0 0 0 4.33 4.331l11.87-11.869a3.047 3.047 0 0 0 .9-2.167zm-14.184 12.624a1.087 1.087 0 0 1 -1.5 0 1.062 1.062 0 0 1 0-1.5l7.769-7.77 1.505 1.505zm11.872-11.872-2.688 2.689-1.5-1.505 2.689-2.688a1.063 1.063 0 1 1 1.5 1.5zm-10.825-6.961 1.55-.442.442-1.55a1.191 1.191 0 0 1 2.29 0l.442 1.55 1.55.442a1.191 1.191 0 0 1 0 2.29l-1.55.442-.442 1.55a1.191 1.191 0 0 1 -2.29 0l-.442-1.55-1.55-.442a1.191 1.191 0 0 1 0-2.29zm18.274 14.29-1.55.442-.442 1.55a1.191 1.191 0 0 1 -2.29 0l-.442-1.55-1.55-.442a1.191 1.191 0 0 1 0-2.29l1.55-.442.442-1.55a1.191 1.191 0 0 1 2.29 0l.442 1.55 1.55.442a1.191 1.191 0 0 1 0 2.29zm-5.382-14.645 1.356-.387.389-1.358a1.042 1.042 0 0 1 2 0l.387 1.356 1.356.387a1.042 1.042 0 0 1 0 2l-1.356.387-.387 1.359a1.042 1.042 0 0 1 -2 0l-.387-1.355-1.358-.389a1.042 1.042 0 0 1 0-2z"></path>
  </symbol>
</svg>