<svg width="0" height="0" class="hidden">
  <symbol xmlns="http://www.w3.org/2000/svg" xmlns:xlink="http://www.w3.org/1999/xlink" version="1.1" id="cross" x="0px" y="0px" xml:space="preserve" viewBox="0 0 512.021 512.021">
    <g>
      <path d="M301.258,256.01L502.645,54.645c12.501-12.501,12.501-32.769,0-45.269c-12.501-12.501-32.769-12.501-45.269,0l0,0   L256.01,210.762L54.645,9.376c-12.501-12.501-32.769-12.501-45.269,0s-12.501,32.769,0,45.269L210.762,256.01L9.376,457.376   c-12.501,12.501-12.501,32.769,0,45.269s32.769,12.501,45.269,0L256.01,301.258l201.365,201.387   c12.501,12.501,32.769,12.501,45.269,0c12.501-12.501,12.501-32.769,0-45.269L301.258,256.01z"></path>
    </g>
  </symbol>
  <symbol version="1.0" xmlns="http://www.w3.org/2000/svg" preserveAspectRatio="xMidYMid meet" viewBox="0 0 512.000000 512.000000" id="icon1">
    <g transform="translate(0.000000,512.000000) scale(0.100000,-0.100000)" fill="#000000" stroke="none">
      <path d="M3705 5102 c-16 -11 -37 -28 -46 -38 -9 -10 -179 -374 -379 -809
-199 -434 -373 -810 -385 -835 l-22 -44 -8 34 c-26 120 -136 301 -248 407 -92
87 -146 125 -250 173 -298 138 -639 109 -914 -78 -165 -113 -304 -304 -359
-496 l-19 -66 -55 -21 c-219 -81 -406 -254 -509 -470 -40 -83 -81 -218 -81
-268 0 -44 -10 -49 -107 -52 -85 -4 -94 -6 -122 -33 -41 -39 -45 -71 -27 -202
107 -765 486 -1405 1063 -1794 l52 -34 3 -156 c3 -154 3 -157 33 -206 19 -30
49 -60 79 -79 l49 -30 1084 -3 c731 -1 1097 1 1123 8 56 15 119 68 148 124 23
44 26 63 29 180 2 72 3 138 3 148 0 9 40 46 93 84 203 149 360 299 499 480
267 348 445 788 513 1264 21 153 20 164 -19 208 -34 37 -35 37 -128 41 -98 3
-108 8 -108 52 0 103 -102 345 -184 437 -41 46 -126 15 -126 -46 0 -14 19 -54
41 -91 64 -100 101 -198 123 -319 l6 -33 -71 3 -71 3 -19 73 c-55 218 -234
400 -449 458 -85 22 -234 22 -319 -1 -66 -17 -144 -52 -193 -86 -14 -11 -31
-19 -36 -19 -6 0 -27 23 -48 51 l-38 52 30 23 c48 39 184 102 259 120 93 22
268 22 358 1 37 -9 105 -33 151 -53 77 -33 86 -35 112 -23 33 16 50 55 41 91
-12 47 -209 128 -352 146 -32 4 -59 11 -59 15 1 5 198 282 439 615 241 333
445 619 453 635 17 34 11 96 -11 131 -9 13 -54 49 -101 81 -83 56 -86 57 -141
53 -42 -4 -62 -11 -80 -29 -13 -13 -267 -382 -565 -819 -298 -437 -558 -810
-578 -828 -90 -81 -120 -148 512 1132 277 561 278 564 235 632 -15 26 -43 45
-107 76 -104 49 -155 57 -197 30z m132 -165 l43 -22 -406 -820 c-222 -450
-406 -820 -408 -822 -6 -6 -56 20 -56 28 0 5 158 352 351 771 194 420 364 791
380 826 15 34 34 62 41 62 7 -1 32 -11 55 -23z m750 -251 c-3 -6 -214 -302
-471 -656 l-466 -645 -47 -12 c-26 -7 -49 -11 -51 -9 -3 4 859 1274 925 1364
l24 32 45 -31 c25 -17 43 -36 41 -43z m-2497 -767 c167 -27 313 -101 430 -218
82 -82 138 -165 176 -262 l24 -62 -47 7 c-25 3 -60 6 -77 6 -28 0 -34 6 -65
68 -48 94 -164 206 -262 255 -99 49 -186 70 -289 70 -108 0 -174 -15 -279 -65
-67 -32 -100 -56 -165 -121 -51 -51 -94 -105 -114 -143 l-32 -61 -72 -6 c-40
-3 -74 -4 -76 -2 -3 2 19 52 48 111 46 94 63 118 143 198 99 98 168 144 275
183 129 48 259 62 382 42z m-40 -290 c75 -11 174 -55 233 -101 36 -29 127
-141 127 -157 0 -3 -29 -14 -65 -24 l-66 -17 -57 59 c-72 73 -143 103 -250
103 -95 0 -179 -39 -247 -114 l-46 -51 -62 18 c-34 10 -64 20 -66 21 -9 7 52
94 96 135 89 84 185 124 323 137 8 1 44 -3 80 -9z m26 -315 c53 -30 63 -54 32
-74 -12 -8 -47 -35 -77 -59 l-53 -43 -27 21 c-14 12 -50 38 -78 58 -29 20 -53
39 -53 44 0 17 77 69 115 77 52 12 90 5 141 -24z m-557 -98 c200 -47 400 -198
500 -379 39 -71 91 -227 91 -273 0 -23 -3 -24 -69 -24 l-68 0 -13 61 c-14 65
-66 183 -101 228 -48 61 -136 144 -188 175 -31 19 -92 47 -136 62 -68 23 -96
27 -190 27 -185 -1 -318 -56 -447 -185 -88 -88 -151 -201 -171 -306 l-12 -62
-71 0 -71 0 9 55 c25 161 127 343 250 448 129 109 242 159 428 191 41 7 199
-4 259 -18z m1291 -6 c202 -56 384 -200 478 -378 35 -67 77 -189 86 -250 l6
-43 -71 3 -72 3 -13 60 c-66 320 -397 540 -723 481 -102 -18 -226 -76 -294
-136 -27 -24 -52 -39 -56 -34 -4 5 -22 31 -40 58 l-32 49 23 24 c66 71 252
158 392 183 74 13 230 3 316 -20z m-1329 -285 c69 -19 119 -48 177 -100 80
-72 132 -157 156 -257 l6 -28 -72 0 -73 0 -19 51 c-22 63 -93 142 -157 175
-175 88 -395 8 -470 -170 l-23 -56 -69 0 -69 0 7 33 c12 63 78 181 129 233 63
62 178 121 261 133 69 10 149 5 216 -14z m1254 3 c160 -41 312 -198 340 -350
l7 -38 -69 0 -69 0 -23 54 c-96 232 -397 282 -567 93 -24 -27 -52 -71 -61 -98
-20 -55 -33 -63 -33 -21 0 15 -9 63 -19 107 l-20 80 42 43 c124 128 296 175
472 130z m1180 -3 c154 -43 302 -199 330 -348 l7 -37 -69 0 -69 0 -23 54 c-38
94 -120 169 -213 197 -18 6 -65 10 -104 10 -84 0 -159 -29 -223 -86 -29 -26
-42 -33 -45 -24 -33 95 -46 134 -46 136 0 1 21 16 47 34 117 81 263 104 408
64z m-2466 -303 c13 -10 35 -32 49 -50 l25 -32 -177 0 -176 0 12 25 c15 33 80
77 126 85 46 8 109 -5 141 -28z m1257 2 c35 -20 74 -61 74 -79 0 -3 -76 -5
-170 -5 -93 0 -170 4 -170 9 0 17 42 62 73 78 71 37 125 36 193 -3z m1178 -3
c20 -13 43 -36 51 -52 l16 -29 -171 0 c-97 0 -170 4 -170 9 0 17 53 73 79 83
74 30 134 26 195 -11z m922 -253 c-3 -13 -10 -57 -16 -98 -37 -258 -128 -546
-252 -795 -161 -324 -427 -627 -729 -833 l-75 -52 -906 0 -907 0 -20 -26 c-34
-43 -24 -86 26 -112 16 -9 248 -12 887 -12 l866 0 0 -114 c0 -63 -3 -122 -6
-131 -18 -46 3 -45 -1114 -45 -780 0 -1057 3 -1073 12 -42 22 -46 38 -47 160
l0 116 101 4 c92 3 103 5 120 27 25 31 24 69 -3 98 -20 22 -29 23 -145 23
l-124 0 -62 42 c-538 360 -886 935 -997 1646 l-17 112 2249 0 2248 0 -4 -22z"></path>
    </g>
  </symbol>
  <symbol version="1.0" xmlns="http://www.w3.org/2000/svg" preserveAspectRatio="xMidYMid meet" viewBox="0 0 512.000000 512.000000" id="icon2">
    <g transform="translate(0.000000,512.000000) scale(0.100000,-0.100000)" fill="#000000" stroke="none">
      <path d="M1200 4627 c-49 -16 -133 -102 -148 -153 -28 -94 -8 -169 63 -239
102 -103 243 -101 338 5 93 103 90 228 -8 325 -70 71 -152 91 -245 62z m135
-172 c50 -49 15 -135 -55 -135 -41 0 -80 39 -80 80 0 41 39 80 80 80 19 0 40
-9 55 -25z"></path>
      <path d="M1551 4053 c-99 -126 -172 -280 -186 -397 l-7 -56 79 0 79 0 12 61
c15 79 68 187 137 274 30 39 58 76 61 83 7 15 -82 112 -102 112 -6 0 -39 -35
-73 -77z"></path>
      <path d="M640 4067 c-19 -6 -58 -34 -85 -62 -71 -70 -91 -145 -63 -239 16 -55
99 -138 154 -154 94 -28 169 -8 239 63 98 97 101 222 8 325 -65 72 -158 97
-253 67z m135 -172 c50 -49 15 -135 -55 -135 -41 0 -80 39 -80 80 0 41 39 80
80 80 19 0 40 -9 55 -25z"></path>
      <path d="M4760 3736 c-30 -12 -311 -140 -625 -283 -313 -142 -589 -268 -613
-278 -104 -45 -171 -168 -158 -291 4 -34 3 -65 -1 -67 -5 -3 -40 5 -78 18
-311 104 -954 18 -1665 -224 -96 -32 -176 -58 -178 -56 -1 1 -7 29 -13 63 -20
114 17 259 97 379 24 36 44 69 44 72 0 11 -95 101 -106 101 -17 0 -92 -108
-129 -185 -63 -132 -84 -260 -64 -392 7 -48 14 -92 14 -96 0 -5 -36 -23 -80
-41 -44 -18 -125 -54 -180 -79 -55 -25 -101 -45 -102 -43 -7 7 -43 203 -52
288 -6 54 -11 175 -12 270 0 106 -5 185 -12 205 -22 60 -72 117 -128 148 -47
26 -64 30 -129 30 -58 0 -85 -6 -116 -22 -53 -28 -99 -74 -127 -127 -21 -40
-22 -53 -25 -371 -2 -215 -7 -334 -14 -342 -6 -7 -24 -13 -40 -13 -77 0 -160
-65 -183 -145 -22 -73 -2 -241 50 -421 5 -14 -5 -34 -33 -68 -89 -107 -118
-212 -88 -308 55 -169 175 -356 324 -500 300 -291 719 -448 1197 -448 1012 0
1907 708 2016 1594 20 162 -1 365 -54 537 l-14 46 41 -21 c29 -14 61 -20 111
-21 l70 0 655 318 c360 175 668 330 683 345 51 48 71 99 71 177 0 57 -5 80
-27 122 -70 135 -195 185 -327 129z m141 -146 c22 -12 59 -80 59 -109 0 -11
-10 -31 -22 -45 -14 -16 -217 -120 -516 -266 -272 -132 -495 -240 -497 -240
-1 0 -6 17 -10 37 -8 44 -47 124 -69 142 -9 8 -16 17 -16 21 0 4 129 66 288
138 158 72 384 176 502 231 118 54 225 100 238 100 13 1 32 -4 43 -9z m-4230
-508 l26 -29 6 -229 c8 -340 52 -561 156 -780 105 -220 252 -382 434 -480 l60
-32 -39 -11 c-79 -23 -332 -71 -430 -83 -89 -10 -111 -9 -170 5 -207 51 -346
196 -427 447 -35 108 -64 304 -48 329 5 7 30 17 56 22 77 14 129 51 159 111
l26 52 0 313 c0 343 2 357 58 388 41 23 101 13 133 -23z m3051 -80 c34 -34 46
-94 26 -132 -16 -29 -73 -70 -99 -70 -16 0 -15 3 6 25 68 67 -25 177 -101 120
-27 -21 -36 -18 -29 8 9 27 43 66 70 78 36 16 96 3 127 -29z m-597 -292 c94
-14 157 -36 190 -66 23 -21 27 -31 22 -62 -7 -41 -59 -120 -112 -172 l-35 -34
0 28 c0 59 -24 111 -75 161 -97 98 -222 101 -325 8 -52 -47 -63 -71 -95 -216
-30 -139 -83 -247 -179 -366 -44 -56 -62 -69 -141 -106 -129 -61 -395 -164
-578 -225 l-158 -52 -72 18 c-157 38 -341 156 -438 280 -70 91 -149 231 -149
266 0 9 129 71 279 133 66 28 96 36 99 27 3 -9 79 -119 98 -141 2 -2 30 20 64
49 l60 52 -35 48 c-19 26 -35 52 -35 57 0 10 297 111 482 163 229 65 545 128
753 149 115 12 299 12 380 1z m-120 -255 c15 -14 25 -35 25 -52 -1 -47 -25
-149 -42 -174 -15 -22 -160 -119 -202 -135 -17 -7 -17 -6 -1 26 28 54 55 139
75 235 13 65 24 94 40 107 32 26 76 23 105 -7z m395 -195 c0 -36 -5 -103 -10
-148 -91 -725 -788 -1332 -1644 -1433 -125 -15 -412 -6 -529 15 -312 59 -587
196 -783 391 -65 65 -150 173 -142 180 3 3 40 0 84 -6 96 -14 331 -6 499 16
734 97 1677 447 2220 823 96 66 234 180 266 220 31 37 39 25 39 -58z m-3057
-788 l52 -55 -45 7 c-71 11 -136 35 -165 62 -23 21 -26 31 -22 60 3 19 16 50
27 70 l22 34 39 -61 c22 -34 63 -86 92 -117z"></path>
      <path d="M564 1803 c17 -97 111 -231 215 -307 27 -20 51 -36 54 -36 4 0 25 27
47 60 l41 61 -76 71 c-54 50 -83 87 -103 129 l-27 59 -79 0 -78 0 6 -37z"></path>
      <path d="M1440 2000 l0 -80 80 0 80 0 0 80 0 80 -80 0 -80 0 0 -80z"></path>
      <path d="M160 3520 l0 -80 80 0 80 0 0 80 0 80 -80 0 -80 0 0 -80z"></path>
      <path d="M1040 3440 l0 -80 80 0 80 0 0 80 0 80 -80 0 -80 0 0 -80z"></path>
      <path d="M960 2720 l0 -80 80 0 80 0 0 80 0 80 -80 0 -80 0 0 -80z"></path>
    </g>
  </symbol>
  <symbol version="1.0" xmlns="http://www.w3.org/2000/svg" preserveAspectRatio="xMidYMid meet" viewBox="0 0 512.000000 512.000000" id="icon3">
    <g transform="translate(0.000000,512.000000) scale(0.100000,-0.100000)" fill="#000000" stroke="none">
      <path d="M2210 5015 c-217 -57 -414 -112 -437 -120 -52 -20 -115 -89 -131
-143 -8 -27 -12 -148 -12 -381 l0 -341 -723 0 c-438 0 -735 -4 -756 -10 -56
-16 -100 -52 -126 -104 -23 -45 -25 -62 -25 -175 0 -106 3 -131 21 -168 26
-54 69 -90 124 -105 l43 -12 10 -70 c6 -39 106 -771 222 -1626 231 -1695 217
-1618 295 -1693 75 -73 -95 -68 2150 -65 l2020 3 50 25 c64 31 124 91 155 155
22 45 25 66 28 197 3 119 1 152 -12 180 -25 52 -67 71 -168 76 l-88 4 0 98 0
98 54 26 c131 64 194 214 152 358 -20 68 -94 155 -156 183 -39 18 -41 21 -35
49 4 17 10 47 14 66 6 33 9 36 61 46 77 15 116 38 148 86 25 38 27 51 30 155
12 406 -150 741 -475 982 -290 216 -666 338 -1100 358 -108 5 -143 9 -143 19
0 17 29 231 36 265 4 20 13 28 36 33 50 10 96 45 126 94 24 43 27 58 30 162 5
135 -6 186 -50 236 -64 73 -16 69 -780 72 l-688 3 0 224 c0 123 4 226 8 229 4
2 147 41 316 85 170 45 323 90 340 100 95 59 137 173 104 282 -15 51 -70 114
-121 140 -83 43 -116 38 -547 -76z m501 -74 c49 -50 35 -124 -28 -149 -15 -6
-170 -47 -343 -92 -173 -44 -325 -86 -336 -92 -40 -19 -44 -47 -44 -318 l0
-260 -90 0 -90 0 0 336 c0 209 4 342 10 354 6 11 20 25 33 31 30 17 795 217
830 218 19 1 38 -9 58 -28z m749 -1081 c17 -17 20 -33 20 -117 0 -76 -4 -100
-17 -115 -15 -17 -51 -18 -723 -18 -677 0 -709 -1 -731 -19 -17 -13 -23 -29
-23 -56 0 -27 6 -43 23 -56 22 -18 53 -19 653 -19 500 0 629 -3 625 -12 -2 -7
-13 -78 -23 -157 -10 -79 -23 -144 -28 -146 -6 -2 -66 -10 -133 -19 -241 -32
-513 -118 -697 -222 -204 -115 -345 -242 -486 -441 -11 -16 -181 -76 -693
-248 -372 -126 -680 -226 -682 -223 -3 3 -48 317 -100 699 -52 382 -97 711
-101 732 l-6 37 690 0 c380 0 698 3 707 6 26 10 45 63 34 93 -20 52 12 50
-816 51 -688 0 -773 2 -787 16 -13 12 -16 38 -16 119 0 96 2 105 22 119 20 14
193 16 1645 16 1610 0 1623 0 1643 -20z m320 -885 c543 -86 958 -355 1110
-722 52 -125 71 -215 77 -369 6 -140 6 -141 -18 -157 -22 -16 -143 -17 -1516
-17 -1480 0 -1493 0 -1513 20 -23 23 -25 52 -10 216 32 366 234 649 600 842
176 93 419 168 621 191 52 6 108 13 124 15 68 10 426 -3 525 -19z m-1987 -817
c-28 -109 -48 -309 -40 -395 7 -71 23 -106 64 -144 38 -36 59 -46 119 -54 l50
-6 13 -57 c7 -31 15 -62 17 -69 3 -6 -10 -16 -30 -23 -52 -17 -122 -84 -152
-147 -23 -46 -28 -71 -29 -132 l0 -75 -540 -187 c-297 -103 -542 -185 -544
-184 -7 8 -158 1140 -152 1147 6 7 1219 416 1237 417 6 1 1 -35 -13 -91z
m2934 -635 c-9 -55 -57 -124 -110 -160 -90 -61 -206 -54 -312 18 -75 51 -108
51 -166 3 -124 -104 -231 -106 -349 -9 -71 59 -109 61 -171 9 -124 -104 -231
-106 -349 -9 -72 59 -108 61 -176 6 -78 -61 -112 -75 -179 -75 -69 1 -108 18
-174 75 -58 52 -97 52 -166 4 -52 -38 -128 -65 -180 -65 -117 0 -224 89 -250
208 l-7 32 1298 0 1297 0 -6 -37z m-2517 -308 c120 -62 277 -57 399 11 l46 26
45 -29 c136 -90 284 -92 422 -7 l58 35 42 -29 c71 -48 134 -67 218 -66 83 2
140 19 212 65 l47 31 43 -30 c132 -89 297 -90 432 0 l47 30 58 -31 c79 -42
180 -59 267 -44 69 12 162 53 190 85 36 39 125 10 164 -54 42 -69 12 -171 -60
-208 -39 -20 -56 -20 -1400 -20 -1486 0 -1400 -3 -1452 58 -72 85 -25 218 85
242 26 5 39 1 67 -20 19 -15 51 -35 70 -45z m-299 -311 c7 -8 34 -27 61 -40
l48 -24 0 -99 0 -99 -89 -4 c-96 -4 -127 -17 -158 -65 -15 -23 -18 -50 -17
-173 0 -123 3 -153 21 -197 l21 -53 -473 0 c-586 0 -530 -23 -566 234 -10 77
-17 141 -15 143 2 2 93 35 202 72 109 38 361 126 559 195 198 68 367 125 376
125 9 1 22 -6 30 -15z m2789 -169 l0 -94 -506 -3 -506 -3 -19 -24 c-25 -30
-24 -76 1 -101 20 -20 33 -20 660 -20 l640 0 0 -103 c0 -128 -21 -178 -90
-214 l-43 -23 -1399 0 c-1529 0 -1438 -4 -1491 59 -36 43 -48 96 -45 194 l3
82 751 5 c616 4 754 7 767 19 25 20 22 83 -4 107 -20 18 -47 19 -635 22 l-614
2 0 95 0 95 1265 0 1265 0 0 -95z"></path>
      <path d="M3180 2803 c-33 -12 -50 -37 -50 -74 0 -45 27 -69 76 -69 66 0 92 82
40 127 -27 23 -39 26 -66 16z"></path>
      <path d="M3643 2800 c-26 -11 -43 -40 -43 -74 0 -63 89 -90 129 -40 28 36 26
60 -8 95 -31 31 -42 33 -78 19z"></path>
      <path d="M2446 2429 c-34 -27 -36 -77 -3 -107 31 -30 72 -28 104 4 20 20 24
31 19 57 -12 62 -70 85 -120 46z"></path>
      <path d="M2915 2425 c-30 -30 -32 -64 -4 -99 41 -53 129 -18 129 51 0 32 -42
73 -75 73 -14 0 -37 -11 -50 -25z"></path>
      <path d="M3385 2425 c-14 -13 -25 -36 -25 -50 0 -35 42 -75 78 -75 36 0 72 37
72 74 0 34 -41 76 -75 76 -14 0 -37 -11 -50 -25z"></path>
      <path d="M3873 2438 c-30 -15 -46 -58 -34 -91 12 -30 39 -47 75 -47 63 0 90
89 40 129 -29 23 -48 25 -81 9z"></path>
      <path d="M4336 2429 c-52 -41 -23 -129 43 -129 70 0 100 81 47 127 -33 28 -56
29 -90 2z"></path>
      <path d="M2222 2083 c-21 -8 -43 -61 -36 -88 14 -54 84 -73 122 -32 56 60 -9
151 -86 120z"></path>
      <path d="M2682 2070 c-48 -45 -16 -130 48 -130 67 0 96 88 44 129 -34 27 -64
27 -92 1z"></path>
      <path d="M3156 2069 c-34 -27 -36 -77 -3 -107 62 -58 152 11 113 87 -24 46
-67 54 -110 20z"></path>
      <path d="M3626 2069 c-34 -27 -36 -77 -3 -107 31 -30 72 -28 104 4 20 20 24
31 19 57 -12 62 -70 85 -120 46z"></path>
      <path d="M4095 2065 c-14 -13 -25 -36 -25 -50 0 -33 42 -75 75 -75 33 0 75 42
75 75 0 33 -42 75 -75 75 -14 0 -37 -11 -50 -25z"></path>
      <path d="M4565 2065 c-14 -13 -25 -36 -25 -50 0 -33 41 -75 73 -75 38 0 77 36
77 71 0 37 -40 79 -75 79 -14 0 -37 -11 -50 -25z"></path>
    </g>
  </symbol>
  <symbol version="1.0" xmlns="http://www.w3.org/2000/svg" preserveAspectRatio="xMidYMid meet" viewBox="0 0 512.000000 512.000000" id="icon4">
    <g transform="translate(0.000000,512.000000) scale(0.100000,-0.100000)" fill="#000000" stroke="none">
      <path d="M2124 5104 c-17 -8 -86 -71 -153 -139 -117 -118 -122 -125 -119 -161
4 -48 43 -80 84 -70 17 5 73 51 137 114 61 60 111 102 115 97 42 -59 70 -112
95 -180 29 -75 31 -89 31 -220 1 -112 -3 -151 -18 -195 -77 -225 -227 -377
-441 -447 -66 -22 -99 -26 -195 -27 -151 -1 -260 31 -383 112 l-38 25 251 252
c236 237 250 254 250 288 0 47 -28 77 -72 77 -29 0 -61 -29 -296 -262 -145
-145 -270 -275 -278 -290 -17 -33 -18 -95 -1 -126 34 -61 217 -167 353 -203
111 -31 306 -31 416 -1 282 77 509 302 585 582 25 92 25 329 0 420 -23 86 -84
212 -136 280 -64 85 -120 107 -187 74z"></path>
      <path d="M3354 5104 c-16 -8 -37 -27 -46 -42 -9 -15 -48 -147 -87 -293 -67
-249 -70 -269 -59 -305 15 -45 67 -84 111 -84 30 0 495 120 550 142 31 12 61
50 70 89 9 35 -26 168 -60 232 -62 115 -207 228 -338 262 -73 19 -102 19 -141
-1z m182 -175 c66 -31 140 -109 174 -181 17 -35 30 -70 30 -79 0 -13 -22 -23
-82 -39 -46 -12 -139 -37 -208 -56 -68 -18 -126 -31 -129 -29 -3 4 47 200 95
372 15 51 15 51 45 43 17 -5 51 -19 75 -31z"></path>
      <path d="M1974 4588 c-22 -10 -44 -47 -44 -74 0 -8 11 -26 25 -39 22 -22 32
-25 105 -25 94 0 120 16 120 74 0 54 -36 76 -119 75 -36 0 -76 -5 -87 -11z"></path>
      <path d="M2704 4456 c-66 -29 -190 -233 -234 -386 -36 -123 -38 -385 -4 -473
3 -8 -9 -18 -31 -26 -40 -14 -143 -105 -164 -145 -8 -14 -17 -26 -20 -26 -4 0
-31 19 -61 41 -67 51 -175 103 -255 124 -84 21 -209 19 -286 -5 l-63 -19 -46
29 c-153 98 -353 134 -533 94 -40 -9 -115 -36 -167 -61 -79 -38 -108 -59 -180
-132 -152 -151 -217 -319 -208 -534 6 -132 34 -226 100 -337 39 -65 157 -193
200 -216 16 -9 16 -13 -3 -74 -25 -78 -21 -166 11 -237 11 -25 20 -47 20 -49
0 -2 -45 -4 -100 -4 -112 0 -150 -11 -192 -56 -54 -59 -59 -113 -29 -319 104
-697 530 -1273 1171 -1584 l115 -56 775 0 775 0 75 34 c278 124 554 333 748
566 277 331 457 772 479 1165 7 137 -5 175 -70 218 -36 24 -53 28 -146 32 -85
4 -106 8 -109 21 -2 11 12 19 49 28 148 38 296 154 337 264 44 116 19 227 -71
320 -29 29 -64 62 -79 73 l-27 19 44 58 c91 119 138 256 138 397 0 159 -63
286 -183 368 l-65 44 -7 62 c-10 84 -55 218 -89 266 -24 34 -35 40 -64 40 -41
0 -75 -29 -75 -64 0 -13 13 -52 30 -87 26 -56 57 -166 48 -174 -1 -2 -25 -5
-52 -6 l-49 -4 -17 60 c-30 108 -82 185 -171 250 -79 58 -166 85 -273 85 -111
-1 -200 -34 -299 -112 l-27 -22 -38 37 -37 38 40 34 c150 129 379 170 560 100
100 -39 129 -41 154 -16 26 26 28 82 3 104 -10 9 -42 27 -72 40 -240 106 -535
60 -743 -115 l-49 -41 -181 181 c-207 206 -229 220 -303 188z m381 -476 c175
-175 317 -321 315 -323 -3 -2 -27 -12 -55 -22 -102 -38 -219 -191 -256 -335
-11 -44 -16 -50 -34 -45 -11 3 -47 8 -80 11 l-60 7 -37 76 c-50 103 -113 172
-193 212 l-64 31 -15 69 c-35 151 -13 343 54 486 31 67 86 153 98 153 4 0 151
-144 327 -320z m723 -105 c96 -40 157 -108 186 -205 9 -29 16 -55 16 -57 0 -2
-24 -14 -52 -27 -29 -13 -77 -40 -107 -60 -29 -20 -56 -36 -60 -36 -3 0 -75
69 -160 154 l-153 153 38 31 c21 18 56 38 79 46 54 20 167 20 213 1z m-2514
-360 c32 -8 82 -27 111 -41 l54 -25 -31 -44 c-33 -46 -42 -52 -53 -35 -13 21
-138 50 -215 50 -231 0 -418 -161 -450 -389 -24 -170 55 -346 198 -441 26 -17
45 -34 43 -38 -3 -4 -22 -20 -44 -35 l-38 -28 -34 21 c-90 56 -188 198 -220
320 -19 72 -19 200 0 275 51 200 213 361 411 409 79 19 196 19 268 1z m2244
-33 c50 -33 86 -79 118 -149 25 -55 55 -83 90 -83 14 0 51 28 98 75 194 189
445 227 588 88 139 -135 101 -397 -84 -585 -99 -101 -100 -136 -5 -184 123
-63 187 -132 187 -203 0 -42 -31 -102 -72 -136 -50 -43 -164 -92 -253 -110
-44 -9 -88 -23 -97 -32 -22 -20 -23 -74 -3 -113 12 -23 12 -30 3 -30 -7 0
-120 107 -250 237 l-238 238 222 222 c194 194 221 225 221 253 0 41 -32 73
-73 73 -28 0 -59 -27 -253 -221 l-222 -221 -185 183 c-196 195 -217 209 -287
191 -41 -10 -112 -91 -168 -191 l-49 -88 -15 45 c-8 25 -14 88 -15 149 -1 94
2 110 24 150 33 59 78 83 146 76 28 -2 70 -14 92 -25 51 -26 103 -27 125 -3 9
9 23 53 32 97 18 89 67 203 110 253 62 74 144 91 213 44z m-902 -63 c39 -24
75 -69 110 -142 l27 -55 -41 -47 c-55 -63 -83 -139 -89 -246 -6 -93 13 -213
47 -299 l19 -49 -52 23 c-71 32 -173 56 -232 56 l-49 0 -161 160 c-141 139
-165 160 -193 160 -42 0 -72 -31 -72 -72 0 -28 16 -49 117 -150 100 -100 114
-118 97 -124 -205 -74 -343 -192 -431 -371 -26 -51 -51 -93 -57 -93 -25 0
-116 62 -149 101 -89 103 -45 211 122 298 118 61 120 83 16 193 -154 164 -207
354 -142 510 40 94 128 149 253 156 143 8 270 -47 397 -172 96 -94 129 -91
182 15 81 160 179 211 281 148z m-1345 -176 c47 -24 54 -32 54 -57 0 -28 -3
-30 -61 -42 -171 -35 -277 -160 -292 -345 l-7 -82 -32 27 c-18 15 -47 56 -64
92 -59 119 -37 256 56 349 59 58 126 85 216 85 63 0 85 -5 130 -27z m85 -295
c24 -75 55 -134 109 -207 44 -59 46 -65 29 -74 -42 -23 -128 -115 -152 -162
-38 -72 -38 -178 0 -255 36 -73 108 -142 199 -190 l74 -39 -332 -1 -331 0 -26
31 c-39 46 -56 84 -63 139 -13 115 86 221 245 260 48 12 77 47 69 83 -3 12
-17 54 -31 92 -28 76 -34 162 -15 228 20 73 110 146 181 147 23 0 29 -6 44
-52z m1838 -362 c-88 -160 -82 -362 16 -518 l29 -48 -89 0 c-78 0 -90 2 -90
17 0 75 -71 253 -134 335 l-36 47 16 78 c17 85 67 201 117 275 l32 48 87 -87
86 -86 -34 -61z m400 -305 c191 -191 244 -250 231 -255 -9 -3 -95 -6 -190 -6
l-173 0 -52 47 c-96 86 -137 185 -127 302 5 64 38 161 54 161 5 0 120 -112
257 -249z m-1093 213 c191 -56 345 -213 394 -401 8 -31 15 -61 15 -65 0 -4
-24 -8 -54 -8 -53 0 -54 0 -60 34 -4 19 -22 66 -41 104 -87 173 -289 276 -476
243 -175 -32 -317 -157 -363 -320 l-17 -61 -53 0 -53 0 8 43 c37 198 204 379
400 431 74 20 232 20 300 0z m-14 -269 c28 -14 68 -44 88 -67 35 -38 82 -125
72 -134 -2 -2 -138 -3 -301 -2 l-297 3 31 62 c42 84 112 140 205 164 50 13
146 1 202 -26z m1937 -445 c-1 -47 -7 -118 -13 -157 l-13 -73 -367 0 c-356 0
-368 -1 -389 -20 -30 -28 -30 -82 0 -110 21 -19 33 -20 369 -20 l348 0 -13
-42 c-47 -153 -140 -345 -236 -487 -196 -292 -459 -521 -775 -673 l-100 -48
-733 0 -733 0 -120 60 c-372 185 -665 469 -858 831 -52 98 -123 270 -136 327
l-7 32 1354 0 c1349 0 1354 0 1376 20 14 14 22 33 22 55 0 22 -8 41 -22 55
-22 20 -27 20 -1394 20 -812 0 -1375 4 -1378 9 -11 17 -40 276 -33 294 6 16
115 17 1929 15 l1923 -3 -1 -85z"></path>
      <path d="M2781 3874 c-24 -30 -26 -43 -10 -77 16 -35 49 -47 129 -47 86 0 124
25 122 81 -1 55 -28 69 -132 69 -84 0 -90 -1 -109 -26z"></path>
      <path d="M3024 3615 c-44 -18 -124 -111 -124 -144 0 -38 38 -71 80 -71 28 0
44 10 92 60 59 60 70 89 48 130 -15 28 -61 40 -96 25z"></path>
      <path d="M1855 4337 c-46 -39 -39 -77 25 -142 46 -47 60 -55 91 -55 44 0 72
28 72 71 0 24 -12 42 -54 84 -67 66 -96 75 -134 42z"></path>
      <path d="M1600 4240 c-17 -17 -20 -33 -20 -104 0 -79 2 -86 26 -105 30 -24 43
-26 78 -10 35 16 49 58 44 135 -3 55 -8 70 -27 85 -30 25 -76 24 -101 -1z"></path>
    </g>
  </symbol>
  <symbol version="1.0" xmlns="http://www.w3.org/2000/svg" preserveAspectRatio="xMidYMid meet" viewBox="0 0 512.000000 512.000000" id="icon5">
    <g transform="translate(0.000000,512.000000) scale(0.100000,-0.100000)" fill="#000000" stroke="none">
      <path d="M2300 5035 l0 -85 85 0 85 0 0 -128 0 -129 -123 -12 c-866 -84 -1608
-673 -1886 -1496 -63 -189 -98 -357 -113 -557 l-12 -158 -137 0 c-76 0 -145
-3 -154 -6 -22 -9 -45 -57 -45 -96 1 -132 70 -288 174 -393 77 -78 145 -120
246 -156 62 -22 81 -23 428 -27 l362 -4 -112 -93 c-72 -60 -116 -91 -122 -85
-6 6 -201 10 -493 10 l-483 0 0 -85 0 -85 425 0 425 0 0 -640 0 -640 -425 0
-425 0 0 -85 0 -85 476 0 c342 0 481 3 497 12 43 22 46 37 47 185 l0 142 1073
4 1072 3 65 22 c36 12 94 39 128 59 84 51 1161 944 1189 985 60 90 77 199 46
288 -11 30 -23 63 -27 72 -6 13 -2 18 21 23 101 20 136 31 203 63 103 50 213
159 263 262 37 74 66 185 67 248 0 39 -23 87 -45 96 -9 3 -78 6 -154 6 l-137
0 -12 158 c-15 200 -50 368 -113 557 -278 824 -1020 1412 -1886 1496 l-123 12
0 129 0 128 85 0 85 0 0 85 0 85 -260 0 -260 0 0 -85z m485 -525 c363 -42 715
-184 1017 -411 104 -78 305 -279 385 -384 235 -312 377 -678 412 -1065 6 -63
11 -127 11 -142 l0 -28 -2050 0 -2050 0 0 28 c0 15 5 79 11 142 35 387 177
753 412 1065 80 105 281 306 385 384 296 223 655 369 1005 410 104 12 358 12
462 1z m2143 -2247 c-18 -65 -49 -115 -107 -173 -65 -65 -144 -105 -233 -120
-87 -14 -3969 -14 -4056 0 -159 26 -300 148 -340 293 l-10 37 2378 0 2378 0
-10 -37z m-2184 -488 c90 -43 90 -187 -1 -223 -18 -7 -146 -12 -348 -14 -353
-4 -356 -4 -430 -69 -112 -99 -112 -279 0 -378 79 -69 51 -66 665 -66 l556 0
500 357 c275 197 518 365 539 374 97 40 214 -42 215 -152 0 -73 -23 -95 -590
-563 -300 -248 -566 -462 -592 -476 -100 -55 -97 -55 -1205 -55 l-1023 0 0
453 0 452 192 160 c105 88 201 166 211 174 54 39 75 40 685 41 511 0 598 -2
626 -15z m798 -285 l-420 -301 -512 3 -512 3 -24 28 c-31 36 -31 78 0 114 l24
28 339 5 c330 5 339 6 383 28 139 73 200 231 144 375 -6 16 31 17 497 17 l502
0 -421 -300z"></path>
      <path d="M2311 4334 c-292 -40 -589 -155 -821 -319 -68 -48 -210 -166 -210
-174 0 -4 26 -32 58 -63 l57 -57 65 55 c181 153 400 270 635 339 102 30 322
65 408 65 l57 0 0 85 0 85 -72 -1 c-40 -1 -120 -7 -177 -15z"></path>
      <path d="M1108 3662 c-25 -31 -61 -79 -79 -105 l-34 -49 25 -20 c13 -11 44
-31 69 -46 l44 -26 26 34 c14 19 47 61 74 94 l47 60 -27 29 c-16 16 -44 42
-63 57 l-36 29 -46 -57z"></path>
      <path d="M339 836 c-130 -46 -199 -197 -150 -328 66 -174 288 -221 419 -87 44
45 65 95 70 165 12 178 -168 311 -339 250z m146 -181 c53 -52 16 -139 -60
-139 -81 0 -111 101 -46 151 27 21 79 15 106 -12z"></path>
    </g>
  </symbol>
  <symbol version="1.0" xmlns="http://www.w3.org/2000/svg" preserveAspectRatio="xMidYMid meet" viewBox="0 0 512.000000 512.000000" id="icon6">
    <g transform="translate(0.000000,512.000000) scale(0.100000,-0.100000)" fill="#000000" stroke="none">
      <path d="M1401 5024 c-83 -22 -165 -71 -224 -133 -29 -31 -58 -63 -63 -72 -5
-9 -36 -20 -74 -27 -163 -29 -301 -142 -364 -298 -20 -48 -29 -58 -72 -78
-206 -97 -347 -308 -361 -541 -7 -117 14 -214 68 -325 34 -68 59 -101 124
-165 l82 -80 -14 -40 c-8 -22 -17 -74 -20 -115 -9 -127 36 -257 122 -349 l44
-47 -6 -74 c-18 -235 134 -445 363 -505 32 -8 58 -16 59 -17 5 -9 175 -492
172 -493 -26 -11 -128 -112 -171 -168 l-57 -75 -37 9 c-303 67 -406 89 -429
89 -58 0 -108 -22 -154 -69 -55 -54 -73 -107 -67 -193 4 -52 2 -58 -15 -58
-111 0 -227 -123 -227 -240 0 -117 116 -240 227 -240 17 0 19 -6 15 -58 -6
-86 12 -139 67 -193 46 -47 96 -69 154 -69 23 0 126 22 429 89 l37 9 61 -80
c175 -226 459 -353 749 -335 126 8 2862 431 2921 452 70 25 121 59 176 117
191 202 151 538 -81 685 -25 15 -45 32 -45 36 0 4 18 31 39 60 92 122 166 300
195 466 18 108 21 375 6 486 -22 154 -72 293 -153 431 -69 118 -254 307 -340
348 -112 53 -236 44 -340 -25 l-48 -31 -40 28 c-22 15 -63 35 -92 45 -47 16
-52 20 -50 46 2 15 10 107 19 203 9 96 13 197 9 224 -12 96 -77 185 -170 234
-44 23 -62 26 -145 26 -83 0 -101 -3 -145 -26 -91 -48 -156 -136 -170 -230 -6
-38 15 -352 30 -439 3 -22 -1 -26 -39 -37 -23 -6 -65 -27 -94 -46 -61 -43 -67
-37 -64 54 3 77 -18 164 -57 237 l-29 53 29 53 c148 275 -1 612 -308 692 -31
8 -75 15 -98 15 -39 0 -41 1 -73 64 -44 84 -131 167 -219 208 -37 17 -91 53
-119 79 -81 76 -209 129 -309 129 -39 0 -41 1 -73 64 -99 191 -334 296 -541
240z m268 -184 c103 -55 141 -116 175 -281 l5 -25 73 14 c70 15 168 11 168 -6
0 -4 -26 -18 -57 -31 -58 -26 -161 -113 -189 -160 -13 -23 -27 -29 -82 -39
-162 -27 -303 -142 -366 -298 -20 -48 -29 -58 -72 -78 -206 -97 -347 -308
-361 -541 -7 -117 14 -214 68 -325 34 -68 59 -101 124 -165 l82 -80 -14 -40
c-8 -22 -17 -74 -20 -115 -9 -127 36 -257 122 -349 l43 -46 -5 -80 c-9 -128
34 -257 114 -346 20 -22 34 -41 32 -42 -2 -2 -32 -15 -67 -29 l-63 -27 -8 22
c-4 12 -50 140 -101 283 l-92 261 -74 6 c-216 16 -348 208 -285 415 11 39 21
72 21 74 0 3 -25 22 -55 42 -89 62 -146 169 -145 275 1 58 18 107 65 183 20
32 35 61 34 62 -2 2 -33 18 -68 36 -292 146 -360 523 -138 758 59 61 113 96
200 127 l61 22 13 57 c25 111 86 189 183 235 44 20 71 26 134 27 l79 0 22 46
c33 69 62 105 108 137 105 72 226 79 336 21z m720 -480 c85 -46 138 -116 160
-211 5 -24 12 -56 15 -70 l6 -26 62 14 c87 21 165 11 240 -29 66 -35 97 -67
136 -142 22 -43 26 -64 26 -136 0 -98 -21 -150 -94 -232 l-42 -48 42 -47 c54
-61 87 -128 95 -189 l7 -49 -79 -1 c-119 -1 -171 -29 -313 -173 -84 -85 -129
-140 -166 -203 l-52 -88 -47 137 -47 136 18 66 c49 185 144 353 279 493 l55
56 -47 59 c-26 32 -48 60 -51 63 -2 3 -39 -32 -83 -78 -90 -95 -181 -228 -230
-337 -19 -41 -36 -75 -39 -75 -3 0 -34 63 -69 139 -56 124 -209 410 -251 471
l-16 23 -65 -43 -65 -43 64 -111 c81 -141 197 -374 191 -381 -3 -3 -25 2 -50
10 -80 27 -220 45 -345 45 l-124 0 6 -47 c3 -27 7 -62 10 -79 l4 -31 148 -6
c158 -6 236 -21 339 -67 117 -53 124 -62 191 -243 71 -192 97 -275 90 -282 -3
-3 -29 5 -59 19 -103 45 -248 78 -397 91 l-82 8 0 -81 0 -80 76 -7 c171 -16
362 -72 448 -133 l38 -27 2 -240 c2 -205 6 -251 23 -317 11 -43 20 -78 19 -78
-1 0 -119 18 -261 40 -143 22 -274 40 -292 40 -58 0 -144 40 -193 89 -91 92
-119 204 -81 329 11 39 21 72 21 74 0 3 -25 22 -55 42 -89 62 -146 169 -145
275 1 58 18 107 65 183 20 32 35 61 34 62 -2 2 -33 18 -68 36 -292 146 -360
523 -138 758 59 61 113 96 200 127 l61 22 13 57 c25 111 86 189 183 235 44 20
71 26 134 27 l79 0 22 46 c33 69 62 105 108 137 105 72 226 79 336 21z m1372
-620 c27 -14 46 -34 61 -64 l21 -43 -38 -412 c-21 -232 -34 -416 -29 -420 5
-4 30 -16 56 -25 58 -21 94 -49 84 -65 -21 -33 -145 -71 -236 -71 -91 0 -215
38 -236 71 -10 16 26 44 84 65 26 9 51 21 56 25 5 4 -8 188 -29 420 l-38 412
21 43 c38 78 139 106 223 64z m-724 -715 c67 -28 67 -32 17 -90 -99 -117 -181
-283 -227 -463 -20 -81 -22 -109 -22 -392 0 -193 4 -321 12 -347 6 -24 10 -43
8 -43 -16 0 -270 42 -276 46 -13 7 -47 130 -60 214 -18 118 -7 426 19 523 45
167 137 323 262 448 114 112 183 139 267 104z m1430 -6 c55 -27 187 -156 242
-238 59 -86 115 -208 143 -311 21 -77 23 -106 23 -310 0 -203 -2 -233 -23
-310 -48 -179 -202 -430 -263 -430 -28 0 -130 18 -136 24 -2 1 8 29 22 60 30
68 61 184 75 281 13 94 13 494 -1 591 -25 182 -115 400 -223 541 -31 40 -56
75 -56 78 0 12 87 45 119 45 19 0 54 -9 78 -21z m-1053 -20 c11 -59 7 -97 -12
-103 -28 -9 -94 -78 -108 -113 -18 -41 -18 -85 -1 -126 16 -38 83 -101 133
-124 l34 -17 -7 -75 c-13 -129 -10 -697 5 -775 7 -37 11 -70 10 -72 -8 -8
-463 69 -470 79 -24 38 -33 159 -33 422 1 260 2 286 24 365 44 166 127 313
245 437 60 64 147 133 166 133 4 0 10 -14 14 -31z m609 0 c110 -73 248 -257
307 -412 62 -159 65 -184 64 -512 0 -275 -2 -306 -21 -377 -33 -118 -82 -228
-101 -228 -10 0 -155 21 -324 47 l-307 47 -10 45 c-26 122 -33 262 -28 539 2
158 8 297 12 310 7 20 14 22 69 22 140 1 275 49 344 124 71 77 69 158 -5 237
-25 26 -54 51 -64 54 -20 7 -25 44 -13 104 8 39 19 39 77 0z m-788 -1534 c770
-119 1416 -220 1435 -225 117 -32 210 -155 210 -280 0 -125 -93 -248 -210
-280 -19 -5 -667 -107 -1440 -226 -1323 -203 -1411 -216 -1505 -211 -189 10
-333 75 -470 212 -91 91 -144 175 -182 290 -23 71 -26 96 -26 215 0 119 3 144
26 215 38 115 91 199 182 290 146 146 299 211 505 214 52 1 497 -64 1475 -214z
m-2502 -145 c100 -22 187 -42 193 -44 9 -3 9 -14 0 -40 l-11 -36 -197 0 c-185
0 -199 1 -218 20 -40 40 -15 140 35 140 8 0 97 -18 198 -40z m147 -360 l0 -80
-295 0 -296 0 -24 25 c-16 15 -25 36 -25 55 0 19 9 40 25 55 l24 25 296 0 295
0 0 -80z m46 -276 c9 -26 9 -37 0 -40 -23 -8 -376 -84 -391 -84 -29 0 -55 38
-55 80 0 27 7 47 20 60 19 19 33 20 218 20 l197 0 11 -36z"></path>
      <path d="M1680 960 l0 -400 80 0 80 0 0 400 0 400 -80 0 -80 0 0 -400z"></path>
      <path d="M2320 960 l0 -400 80 0 80 0 0 400 0 400 -80 0 -80 0 0 -400z"></path>
      <path d="M2960 960 l0 -400 80 0 80 0 0 400 0 400 -80 0 -80 0 0 -400z"></path>
      <path d="M3600 960 l0 -240 80 0 80 0 0 240 0 240 -80 0 -80 0 0 -240z"></path>
      <path d="M4240 960 l0 -160 80 0 80 0 0 160 0 160 -80 0 -80 0 0 -160z"></path>
    </g>
  </symbol>
  <symbol xmlns="http://www.w3.org/2000/svg" xmlns:xlink="http://www.w3.org/1999/xlink" version="1.1" id="line" x="0px" y="0px" xml:space="preserve" viewBox="0 0 512 512">
    <g>
      <path d="M480,288H32c-17.673,0-32-14.327-32-32s14.327-32,32-32h448c17.673,0,32,14.327,32,32S497.673,288,480,288z"></path>
    </g>
  </symbol>
  <symbol id="magic-wand" xmlns="http://www.w3.org/2000/svg" viewBox="0 0 24 24">
    <path d="m18 9.064a3.049 3.049 0 0 0 -.9-2.164 3.139 3.139 0 0 0 -4.334 0l-11.866 11.869a3.064 3.064 0 0 0 4.33 4.331l11.87-11.869a3.047 3.047 0 0 0 .9-2.167zm-14.184 12.624a1.087 1.087 0 0 1 -1.5 0 1.062 1.062 0 0 1 0-1.5l7.769-7.77 1.505 1.505zm11.872-11.872-2.688 2.689-1.5-1.505 2.689-2.688a1.063 1.063 0 1 1 1.5 1.5zm-10.825-6.961 1.55-.442.442-1.55a1.191 1.191 0 0 1 2.29 0l.442 1.55 1.55.442a1.191 1.191 0 0 1 0 2.29l-1.55.442-.442 1.55a1.191 1.191 0 0 1 -2.29 0l-.442-1.55-1.55-.442a1.191 1.191 0 0 1 0-2.29zm18.274 14.29-1.55.442-.442 1.55a1.191 1.191 0 0 1 -2.29 0l-.442-1.55-1.55-.442a1.191 1.191 0 0 1 0-2.29l1.55-.442.442-1.55a1.191 1.191 0 0 1 2.29 0l.442 1.55 1.55.442a1.191 1.191 0 0 1 0 2.29zm-5.382-14.645 1.356-.387.389-1.358a1.042 1.042 0 0 1 2 0l.387 1.356 1.356.387a1.042 1.042 0 0 1 0 2l-1.356.387-.387 1.359a1.042 1.042 0 0 1 -2 0l-.387-1.355-1.358-.389a1.042 1.042 0 0 1 0-2z"></path>
  </symbol>
  <symbol xmlns="http://www.w3.org/2000/svg" xmlns:xlink="http://www.w3.org/1999/xlink" version="1.1" id="menu-burger" x="0px" y="0px" xml:space="preserve" viewBox="0 0 512 512">
    <g>
      <path d="M480,224H32c-17.673,0-32,14.327-32,32s14.327,32,32,32h448c17.673,0,32-14.327,32-32S497.673,224,480,224z"></path>
      <path d="M32,138.667h448c17.673,0,32-14.327,32-32s-14.327-32-32-32H32c-17.673,0-32,14.327-32,32S14.327,138.667,32,138.667z"></path>
      <path d="M480,373.333H32c-17.673,0-32,14.327-32,32s14.327,32,32,32h448c17.673,0,32-14.327,32-32S497.673,373.333,480,373.333z"></path>
    </g>
  </symbol>
  <symbol viewBox="0 0 0 0" id="sprite">
    <symbol version="1.0" xmlns="http://www.w3.org/2000/svg" preserveAspectRatio="xMidYMid meet" viewBox="0 0 512.000000 512.000000" id="icon1">
      <g transform="translate(0.000000,512.000000) scale(0.100000,-0.100000)" fill="#000000" stroke="none">
        <path d="M3705 5102 c-16 -11 -37 -28 -46 -38 -9 -10 -179 -374 -379 -809
-199 -434 -373 -810 -385 -835 l-22 -44 -8 34 c-26 120 -136 301 -248 407 -92
87 -146 125 -250 173 -298 138 -639 109 -914 -78 -165 -113 -304 -304 -359
-496 l-19 -66 -55 -21 c-219 -81 -406 -254 -509 -470 -40 -83 -81 -218 -81
-268 0 -44 -10 -49 -107 -52 -85 -4 -94 -6 -122 -33 -41 -39 -45 -71 -27 -202
107 -765 486 -1405 1063 -1794 l52 -34 3 -156 c3 -154 3 -157 33 -206 19 -30
49 -60 79 -79 l49 -30 1084 -3 c731 -1 1097 1 1123 8 56 15 119 68 148 124 23
44 26 63 29 180 2 72 3 138 3 148 0 9 40 46 93 84 203 149 360 299 499 480
267 348 445 788 513 1264 21 153 20 164 -19 208 -34 37 -35 37 -128 41 -98 3
-108 8 -108 52 0 103 -102 345 -184 437 -41 46 -126 15 -126 -46 0 -14 19 -54
41 -91 64 -100 101 -198 123 -319 l6 -33 -71 3 -71 3 -19 73 c-55 218 -234
400 -449 458 -85 22 -234 22 -319 -1 -66 -17 -144 -52 -193 -86 -14 -11 -31
-19 -36 -19 -6 0 -27 23 -48 51 l-38 52 30 23 c48 39 184 102 259 120 93 22
268 22 358 1 37 -9 105 -33 151 -53 77 -33 86 -35 112 -23 33 16 50 55 41 91
-12 47 -209 128 -352 146 -32 4 -59 11 -59 15 1 5 198 282 439 615 241 333
445 619 453 635 17 34 11 96 -11 131 -9 13 -54 49 -101 81 -83 56 -86 57 -141
53 -42 -4 -62 -11 -80 -29 -13 -13 -267 -382 -565 -819 -298 -437 -558 -810
-578 -828 -90 -81 -120 -148 512 1132 277 561 278 564 235 632 -15 26 -43 45
-107 76 -104 49 -155 57 -197 30z m132 -165 l43 -22 -406 -820 c-222 -450
-406 -820 -408 -822 -6 -6 -56 20 -56 28 0 5 158 352 351 771 194 420 364 791
380 826 15 34 34 62 41 62 7 -1 32 -11 55 -23z m750 -251 c-3 -6 -214 -302
-471 -656 l-466 -645 -47 -12 c-26 -7 -49 -11 -51 -9 -3 4 859 1274 925 1364
l24 32 45 -31 c25 -17 43 -36 41 -43z m-2497 -767 c167 -27 313 -101 430 -218
82 -82 138 -165 176 -262 l24 -62 -47 7 c-25 3 -60 6 -77 6 -28 0 -34 6 -65
68 -48 94 -164 206 -262 255 -99 49 -186 70 -289 70 -108 0 -174 -15 -279 -65
-67 -32 -100 -56 -165 -121 -51 -51 -94 -105 -114 -143 l-32 -61 -72 -6 c-40
-3 -74 -4 -76 -2 -3 2 19 52 48 111 46 94 63 118 143 198 99 98 168 144 275
183 129 48 259 62 382 42z m-40 -290 c75 -11 174 -55 233 -101 36 -29 127
-141 127 -157 0 -3 -29 -14 -65 -24 l-66 -17 -57 59 c-72 73 -143 103 -250
103 -95 0 -179 -39 -247 -114 l-46 -51 -62 18 c-34 10 -64 20 -66 21 -9 7 52
94 96 135 89 84 185 124 323 137 8 1 44 -3 80 -9z m26 -315 c53 -30 63 -54 32
-74 -12 -8 -47 -35 -77 -59 l-53 -43 -27 21 c-14 12 -50 38 -78 58 -29 20 -53
39 -53 44 0 17 77 69 115 77 52 12 90 5 141 -24z m-557 -98 c200 -47 400 -198
500 -379 39 -71 91 -227 91 -273 0 -23 -3 -24 -69 -24 l-68 0 -13 61 c-14 65
-66 183 -101 228 -48 61 -136 144 -188 175 -31 19 -92 47 -136 62 -68 23 -96
27 -190 27 -185 -1 -318 -56 -447 -185 -88 -88 -151 -201 -171 -306 l-12 -62
-71 0 -71 0 9 55 c25 161 127 343 250 448 129 109 242 159 428 191 41 7 199
-4 259 -18z m1291 -6 c202 -56 384 -200 478 -378 35 -67 77 -189 86 -250 l6
-43 -71 3 -72 3 -13 60 c-66 320 -397 540 -723 481 -102 -18 -226 -76 -294
-136 -27 -24 -52 -39 -56 -34 -4 5 -22 31 -40 58 l-32 49 23 24 c66 71 252
158 392 183 74 13 230 3 316 -20z m-1329 -285 c69 -19 119 -48 177 -100 80
-72 132 -157 156 -257 l6 -28 -72 0 -73 0 -19 51 c-22 63 -93 142 -157 175
-175 88 -395 8 -470 -170 l-23 -56 -69 0 -69 0 7 33 c12 63 78 181 129 233 63
62 178 121 261 133 69 10 149 5 216 -14z m1254 3 c160 -41 312 -198 340 -350
l7 -38 -69 0 -69 0 -23 54 c-96 232 -397 282 -567 93 -24 -27 -52 -71 -61 -98
-20 -55 -33 -63 -33 -21 0 15 -9 63 -19 107 l-20 80 42 43 c124 128 296 175
472 130z m1180 -3 c154 -43 302 -199 330 -348 l7 -37 -69 0 -69 0 -23 54 c-38
94 -120 169 -213 197 -18 6 -65 10 -104 10 -84 0 -159 -29 -223 -86 -29 -26
-42 -33 -45 -24 -33 95 -46 134 -46 136 0 1 21 16 47 34 117 81 263 104 408
64z m-2466 -303 c13 -10 35 -32 49 -50 l25 -32 -177 0 -176 0 12 25 c15 33 80
77 126 85 46 8 109 -5 141 -28z m1257 2 c35 -20 74 -61 74 -79 0 -3 -76 -5
-170 -5 -93 0 -170 4 -170 9 0 17 42 62 73 78 71 37 125 36 193 -3z m1178 -3
c20 -13 43 -36 51 -52 l16 -29 -171 0 c-97 0 -170 4 -170 9 0 17 53 73 79 83
74 30 134 26 195 -11z m922 -253 c-3 -13 -10 -57 -16 -98 -37 -258 -128 -546
-252 -795 -161 -324 -427 -627 -729 -833 l-75 -52 -906 0 -907 0 -20 -26 c-34
-43 -24 -86 26 -112 16 -9 248 -12 887 -12 l866 0 0 -114 c0 -63 -3 -122 -6
-131 -18 -46 3 -45 -1114 -45 -780 0 -1057 3 -1073 12 -42 22 -46 38 -47 160
l0 116 101 4 c92 3 103 5 120 27 25 31 24 69 -3 98 -20 22 -29 23 -145 23
l-124 0 -62 42 c-538 360 -886 935 -997 1646 l-17 112 2249 0 2248 0 -4 -22z"></path>
      </g>
    </symbol>
    <symbol version="1.0" xmlns="http://www.w3.org/2000/svg" preserveAspectRatio="xMidYMid meet" viewBox="0 0 512.000000 512.000000" id="icon2">
      <g transform="translate(0.000000,512.000000) scale(0.100000,-0.100000)" fill="#000000" stroke="none">
        <path d="M1200 4627 c-49 -16 -133 -102 -148 -153 -28 -94 -8 -169 63 -239
102 -103 243 -101 338 5 93 103 90 228 -8 325 -70 71 -152 91 -245 62z m135
-172 c50 -49 15 -135 -55 -135 -41 0 -80 39 -80 80 0 41 39 80 80 80 19 0 40
-9 55 -25z"></path>
        <path d="M1551 4053 c-99 -126 -172 -280 -186 -397 l-7 -56 79 0 79 0 12 61
c15 79 68 187 137 274 30 39 58 76 61 83 7 15 -82 112 -102 112 -6 0 -39 -35
-73 -77z"></path>
        <path d="M640 4067 c-19 -6 -58 -34 -85 -62 -71 -70 -91 -145 -63 -239 16 -55
99 -138 154 -154 94 -28 169 -8 239 63 98 97 101 222 8 325 -65 72 -158 97
-253 67z m135 -172 c50 -49 15 -135 -55 -135 -41 0 -80 39 -80 80 0 41 39 80
80 80 19 0 40 -9 55 -25z"></path>
        <path d="M4760 3736 c-30 -12 -311 -140 -625 -283 -313 -142 -589 -268 -613
-278 -104 -45 -171 -168 -158 -291 4 -34 3 -65 -1 -67 -5 -3 -40 5 -78 18
-311 104 -954 18 -1665 -224 -96 -32 -176 -58 -178 -56 -1 1 -7 29 -13 63 -20
114 17 259 97 379 24 36 44 69 44 72 0 11 -95 101 -106 101 -17 0 -92 -108
-129 -185 -63 -132 -84 -260 -64 -392 7 -48 14 -92 14 -96 0 -5 -36 -23 -80
-41 -44 -18 -125 -54 -180 -79 -55 -25 -101 -45 -102 -43 -7 7 -43 203 -52
288 -6 54 -11 175 -12 270 0 106 -5 185 -12 205 -22 60 -72 117 -128 148 -47
26 -64 30 -129 30 -58 0 -85 -6 -116 -22 -53 -28 -99 -74 -127 -127 -21 -40
-22 -53 -25 -371 -2 -215 -7 -334 -14 -342 -6 -7 -24 -13 -40 -13 -77 0 -160
-65 -183 -145 -22 -73 -2 -241 50 -421 5 -14 -5 -34 -33 -68 -89 -107 -118
-212 -88 -308 55 -169 175 -356 324 -500 300 -291 719 -448 1197 -448 1012 0
1907 708 2016 1594 20 162 -1 365 -54 537 l-14 46 41 -21 c29 -14 61 -20 111
-21 l70 0 655 318 c360 175 668 330 683 345 51 48 71 99 71 177 0 57 -5 80
-27 122 -70 135 -195 185 -327 129z m141 -146 c22 -12 59 -80 59 -109 0 -11
-10 -31 -22 -45 -14 -16 -217 -120 -516 -266 -272 -132 -495 -240 -497 -240
-1 0 -6 17 -10 37 -8 44 -47 124 -69 142 -9 8 -16 17 -16 21 0 4 129 66 288
138 158 72 384 176 502 231 118 54 225 100 238 100 13 1 32 -4 43 -9z m-4230
-508 l26 -29 6 -229 c8 -340 52 -561 156 -780 105 -220 252 -382 434 -480 l60
-32 -39 -11 c-79 -23 -332 -71 -430 -83 -89 -10 -111 -9 -170 5 -207 51 -346
196 -427 447 -35 108 -64 304 -48 329 5 7 30 17 56 22 77 14 129 51 159 111
l26 52 0 313 c0 343 2 357 58 388 41 23 101 13 133 -23z m3051 -80 c34 -34 46
-94 26 -132 -16 -29 -73 -70 -99 -70 -16 0 -15 3 6 25 68 67 -25 177 -101 120
-27 -21 -36 -18 -29 8 9 27 43 66 70 78 36 16 96 3 127 -29z m-597 -292 c94
-14 157 -36 190 -66 23 -21 27 -31 22 -62 -7 -41 -59 -120 -112 -172 l-35 -34
0 28 c0 59 -24 111 -75 161 -97 98 -222 101 -325 8 -52 -47 -63 -71 -95 -216
-30 -139 -83 -247 -179 -366 -44 -56 -62 -69 -141 -106 -129 -61 -395 -164
-578 -225 l-158 -52 -72 18 c-157 38 -341 156 -438 280 -70 91 -149 231 -149
266 0 9 129 71 279 133 66 28 96 36 99 27 3 -9 79 -119 98 -141 2 -2 30 20 64
49 l60 52 -35 48 c-19 26 -35 52 -35 57 0 10 297 111 482 163 229 65 545 128
753 149 115 12 299 12 380 1z m-120 -255 c15 -14 25 -35 25 -52 -1 -47 -25
-149 -42 -174 -15 -22 -160 -119 -202 -135 -17 -7 -17 -6 -1 26 28 54 55 139
75 235 13 65 24 94 40 107 32 26 76 23 105 -7z m395 -195 c0 -36 -5 -103 -10
-148 -91 -725 -788 -1332 -1644 -1433 -125 -15 -412 -6 -529 15 -312 59 -587
196 -783 391 -65 65 -150 173 -142 180 3 3 40 0 84 -6 96 -14 331 -6 499 16
734 97 1677 447 2220 823 96 66 234 180 266 220 31 37 39 25 39 -58z m-3057
-788 l52 -55 -45 7 c-71 11 -136 35 -165 62 -23 21 -26 31 -22 60 3 19 16 50
27 70 l22 34 39 -61 c22 -34 63 -86 92 -117z"></path>
        <path d="M564 1803 c17 -97 111 -231 215 -307 27 -20 51 -36 54 -36 4 0 25 27
47 60 l41 61 -76 71 c-54 50 -83 87 -103 129 l-27 59 -79 0 -78 0 6 -37z"></path>
        <path d="M1440 2000 l0 -80 80 0 80 0 0 80 0 80 -80 0 -80 0 0 -80z"></path>
        <path d="M160 3520 l0 -80 80 0 80 0 0 80 0 80 -80 0 -80 0 0 -80z"></path>
        <path d="M1040 3440 l0 -80 80 0 80 0 0 80 0 80 -80 0 -80 0 0 -80z"></path>
        <path d="M960 2720 l0 -80 80 0 80 0 0 80 0 80 -80 0 -80 0 0 -80z"></path>
      </g>
    </symbol>
    <symbol version="1.0" xmlns="http://www.w3.org/2000/svg" preserveAspectRatio="xMidYMid meet" viewBox="0 0 512.000000 512.000000" id="icon3">
      <g transform="translate(0.000000,512.000000) scale(0.100000,-0.100000)" fill="#000000" stroke="none">
        <path d="M2210 5015 c-217 -57 -414 -112 -437 -120 -52 -20 -115 -89 -131
-143 -8 -27 -12 -148 -12 -381 l0 -341 -723 0 c-438 0 -735 -4 -756 -10 -56
-16 -100 -52 -126 -104 -23 -45 -25 -62 -25 -175 0 -106 3 -131 21 -168 26
-54 69 -90 124 -105 l43 -12 10 -70 c6 -39 106 -771 222 -1626 231 -1695 217
-1618 295 -1693 75 -73 -95 -68 2150 -65 l2020 3 50 25 c64 31 124 91 155 155
22 45 25 66 28 197 3 119 1 152 -12 180 -25 52 -67 71 -168 76 l-88 4 0 98 0
98 54 26 c131 64 194 214 152 358 -20 68 -94 155 -156 183 -39 18 -41 21 -35
49 4 17 10 47 14 66 6 33 9 36 61 46 77 15 116 38 148 86 25 38 27 51 30 155
12 406 -150 741 -475 982 -290 216 -666 338 -1100 358 -108 5 -143 9 -143 19
0 17 29 231 36 265 4 20 13 28 36 33 50 10 96 45 126 94 24 43 27 58 30 162 5
135 -6 186 -50 236 -64 73 -16 69 -780 72 l-688 3 0 224 c0 123 4 226 8 229 4
2 147 41 316 85 170 45 323 90 340 100 95 59 137 173 104 282 -15 51 -70 114
-121 140 -83 43 -116 38 -547 -76z m501 -74 c49 -50 35 -124 -28 -149 -15 -6
-170 -47 -343 -92 -173 -44 -325 -86 -336 -92 -40 -19 -44 -47 -44 -318 l0
-260 -90 0 -90 0 0 336 c0 209 4 342 10 354 6 11 20 25 33 31 30 17 795 217
830 218 19 1 38 -9 58 -28z m749 -1081 c17 -17 20 -33 20 -117 0 -76 -4 -100
-17 -115 -15 -17 -51 -18 -723 -18 -677 0 -709 -1 -731 -19 -17 -13 -23 -29
-23 -56 0 -27 6 -43 23 -56 22 -18 53 -19 653 -19 500 0 629 -3 625 -12 -2 -7
-13 -78 -23 -157 -10 -79 -23 -144 -28 -146 -6 -2 -66 -10 -133 -19 -241 -32
-513 -118 -697 -222 -204 -115 -345 -242 -486 -441 -11 -16 -181 -76 -693
-248 -372 -126 -680 -226 -682 -223 -3 3 -48 317 -100 699 -52 382 -97 711
-101 732 l-6 37 690 0 c380 0 698 3 707 6 26 10 45 63 34 93 -20 52 12 50
-816 51 -688 0 -773 2 -787 16 -13 12 -16 38 -16 119 0 96 2 105 22 119 20 14
193 16 1645 16 1610 0 1623 0 1643 -20z m320 -885 c543 -86 958 -355 1110
-722 52 -125 71 -215 77 -369 6 -140 6 -141 -18 -157 -22 -16 -143 -17 -1516
-17 -1480 0 -1493 0 -1513 20 -23 23 -25 52 -10 216 32 366 234 649 600 842
176 93 419 168 621 191 52 6 108 13 124 15 68 10 426 -3 525 -19z m-1987 -817
c-28 -109 -48 -309 -40 -395 7 -71 23 -106 64 -144 38 -36 59 -46 119 -54 l50
-6 13 -57 c7 -31 15 -62 17 -69 3 -6 -10 -16 -30 -23 -52 -17 -122 -84 -152
-147 -23 -46 -28 -71 -29 -132 l0 -75 -540 -187 c-297 -103 -542 -185 -544
-184 -7 8 -158 1140 -152 1147 6 7 1219 416 1237 417 6 1 1 -35 -13 -91z
m2934 -635 c-9 -55 -57 -124 -110 -160 -90 -61 -206 -54 -312 18 -75 51 -108
51 -166 3 -124 -104 -231 -106 -349 -9 -71 59 -109 61 -171 9 -124 -104 -231
-106 -349 -9 -72 59 -108 61 -176 6 -78 -61 -112 -75 -179 -75 -69 1 -108 18
-174 75 -58 52 -97 52 -166 4 -52 -38 -128 -65 -180 -65 -117 0 -224 89 -250
208 l-7 32 1298 0 1297 0 -6 -37z m-2517 -308 c120 -62 277 -57 399 11 l46 26
45 -29 c136 -90 284 -92 422 -7 l58 35 42 -29 c71 -48 134 -67 218 -66 83 2
140 19 212 65 l47 31 43 -30 c132 -89 297 -90 432 0 l47 30 58 -31 c79 -42
180 -59 267 -44 69 12 162 53 190 85 36 39 125 10 164 -54 42 -69 12 -171 -60
-208 -39 -20 -56 -20 -1400 -20 -1486 0 -1400 -3 -1452 58 -72 85 -25 218 85
242 26 5 39 1 67 -20 19 -15 51 -35 70 -45z m-299 -311 c7 -8 34 -27 61 -40
l48 -24 0 -99 0 -99 -89 -4 c-96 -4 -127 -17 -158 -65 -15 -23 -18 -50 -17
-173 0 -123 3 -153 21 -197 l21 -53 -473 0 c-586 0 -530 -23 -566 234 -10 77
-17 141 -15 143 2 2 93 35 202 72 109 38 361 126 559 195 198 68 367 125 376
125 9 1 22 -6 30 -15z m2789 -169 l0 -94 -506 -3 -506 -3 -19 -24 c-25 -30
-24 -76 1 -101 20 -20 33 -20 660 -20 l640 0 0 -103 c0 -128 -21 -178 -90
-214 l-43 -23 -1399 0 c-1529 0 -1438 -4 -1491 59 -36 43 -48 96 -45 194 l3
82 751 5 c616 4 754 7 767 19 25 20 22 83 -4 107 -20 18 -47 19 -635 22 l-614
2 0 95 0 95 1265 0 1265 0 0 -95z"></path>
        <path d="M3180 2803 c-33 -12 -50 -37 -50 -74 0 -45 27 -69 76 -69 66 0 92 82
40 127 -27 23 -39 26 -66 16z"></path>
        <path d="M3643 2800 c-26 -11 -43 -40 -43 -74 0 -63 89 -90 129 -40 28 36 26
60 -8 95 -31 31 -42 33 -78 19z"></path>
        <path d="M2446 2429 c-34 -27 -36 -77 -3 -107 31 -30 72 -28 104 4 20 20 24
31 19 57 -12 62 -70 85 -120 46z"></path>
        <path d="M2915 2425 c-30 -30 -32 -64 -4 -99 41 -53 129 -18 129 51 0 32 -42
73 -75 73 -14 0 -37 -11 -50 -25z"></path>
        <path d="M3385 2425 c-14 -13 -25 -36 -25 -50 0 -35 42 -75 78 -75 36 0 72 37
72 74 0 34 -41 76 -75 76 -14 0 -37 -11 -50 -25z"></path>
        <path d="M3873 2438 c-30 -15 -46 -58 -34 -91 12 -30 39 -47 75 -47 63 0 90
89 40 129 -29 23 -48 25 -81 9z"></path>
        <path d="M4336 2429 c-52 -41 -23 -129 43 -129 70 0 100 81 47 127 -33 28 -56
29 -90 2z"></path>
        <path d="M2222 2083 c-21 -8 -43 -61 -36 -88 14 -54 84 -73 122 -32 56 60 -9
151 -86 120z"></path>
        <path d="M2682 2070 c-48 -45 -16 -130 48 -130 67 0 96 88 44 129 -34 27 -64
27 -92 1z"></path>
        <path d="M3156 2069 c-34 -27 -36 -77 -3 -107 62 -58 152 11 113 87 -24 46
-67 54 -110 20z"></path>
        <path d="M3626 2069 c-34 -27 -36 -77 -3 -107 31 -30 72 -28 104 4 20 20 24
31 19 57 -12 62 -70 85 -120 46z"></path>
        <path d="M4095 2065 c-14 -13 -25 -36 -25 -50 0 -33 42 -75 75 -75 33 0 75 42
75 75 0 33 -42 75 -75 75 -14 0 -37 -11 -50 -25z"></path>
        <path d="M4565 2065 c-14 -13 -25 -36 -25 -50 0 -33 41 -75 73 -75 38 0 77 36
77 71 0 37 -40 79 -75 79 -14 0 -37 -11 -50 -25z"></path>
      </g>
    </symbol>
    <symbol version="1.0" xmlns="http://www.w3.org/2000/svg" preserveAspectRatio="xMidYMid meet" viewBox="0 0 512.000000 512.000000" id="icon4">
      <g transform="translate(0.000000,512.000000) scale(0.100000,-0.100000)" fill="#000000" stroke="none">
        <path d="M2124 5104 c-17 -8 -86 -71 -153 -139 -117 -118 -122 -125 -119 -161
4 -48 43 -80 84 -70 17 5 73 51 137 114 61 60 111 102 115 97 42 -59 70 -112
95 -180 29 -75 31 -89 31 -220 1 -112 -3 -151 -18 -195 -77 -225 -227 -377
-441 -447 -66 -22 -99 -26 -195 -27 -151 -1 -260 31 -383 112 l-38 25 251 252
c236 237 250 254 250 288 0 47 -28 77 -72 77 -29 0 -61 -29 -296 -262 -145
-145 -270 -275 -278 -290 -17 -33 -18 -95 -1 -126 34 -61 217 -167 353 -203
111 -31 306 -31 416 -1 282 77 509 302 585 582 25 92 25 329 0 420 -23 86 -84
212 -136 280 -64 85 -120 107 -187 74z"></path>
        <path d="M3354 5104 c-16 -8 -37 -27 -46 -42 -9 -15 -48 -147 -87 -293 -67
-249 -70 -269 -59 -305 15 -45 67 -84 111 -84 30 0 495 120 550 142 31 12 61
50 70 89 9 35 -26 168 -60 232 -62 115 -207 228 -338 262 -73 19 -102 19 -141
-1z m182 -175 c66 -31 140 -109 174 -181 17 -35 30 -70 30 -79 0 -13 -22 -23
-82 -39 -46 -12 -139 -37 -208 -56 -68 -18 -126 -31 -129 -29 -3 4 47 200 95
372 15 51 15 51 45 43 17 -5 51 -19 75 -31z"></path>
        <path d="M1974 4588 c-22 -10 -44 -47 -44 -74 0 -8 11 -26 25 -39 22 -22 32
-25 105 -25 94 0 120 16 120 74 0 54 -36 76 -119 75 -36 0 -76 -5 -87 -11z"></path>
        <path d="M2704 4456 c-66 -29 -190 -233 -234 -386 -36 -123 -38 -385 -4 -473
3 -8 -9 -18 -31 -26 -40 -14 -143 -105 -164 -145 -8 -14 -17 -26 -20 -26 -4 0
-31 19 -61 41 -67 51 -175 103 -255 124 -84 21 -209 19 -286 -5 l-63 -19 -46
29 c-153 98 -353 134 -533 94 -40 -9 -115 -36 -167 -61 -79 -38 -108 -59 -180
-132 -152 -151 -217 -319 -208 -534 6 -132 34 -226 100 -337 39 -65 157 -193
200 -216 16 -9 16 -13 -3 -74 -25 -78 -21 -166 11 -237 11 -25 20 -47 20 -49
0 -2 -45 -4 -100 -4 -112 0 -150 -11 -192 -56 -54 -59 -59 -113 -29 -319 104
-697 530 -1273 1171 -1584 l115 -56 775 0 775 0 75 34 c278 124 554 333 748
566 277 331 457 772 479 1165 7 137 -5 175 -70 218 -36 24 -53 28 -146 32 -85
4 -106 8 -109 21 -2 11 12 19 49 28 148 38 296 154 337 264 44 116 19 227 -71
320 -29 29 -64 62 -79 73 l-27 19 44 58 c91 119 138 256 138 397 0 159 -63
286 -183 368 l-65 44 -7 62 c-10 84 -55 218 -89 266 -24 34 -35 40 -64 40 -41
0 -75 -29 -75 -64 0 -13 13 -52 30 -87 26 -56 57 -166 48 -174 -1 -2 -25 -5
-52 -6 l-49 -4 -17 60 c-30 108 -82 185 -171 250 -79 58 -166 85 -273 85 -111
-1 -200 -34 -299 -112 l-27 -22 -38 37 -37 38 40 34 c150 129 379 170 560 100
100 -39 129 -41 154 -16 26 26 28 82 3 104 -10 9 -42 27 -72 40 -240 106 -535
60 -743 -115 l-49 -41 -181 181 c-207 206 -229 220 -303 188z m381 -476 c175
-175 317 -321 315 -323 -3 -2 -27 -12 -55 -22 -102 -38 -219 -191 -256 -335
-11 -44 -16 -50 -34 -45 -11 3 -47 8 -80 11 l-60 7 -37 76 c-50 103 -113 172
-193 212 l-64 31 -15 69 c-35 151 -13 343 54 486 31 67 86 153 98 153 4 0 151
-144 327 -320z m723 -105 c96 -40 157 -108 186 -205 9 -29 16 -55 16 -57 0 -2
-24 -14 -52 -27 -29 -13 -77 -40 -107 -60 -29 -20 -56 -36 -60 -36 -3 0 -75
69 -160 154 l-153 153 38 31 c21 18 56 38 79 46 54 20 167 20 213 1z m-2514
-360 c32 -8 82 -27 111 -41 l54 -25 -31 -44 c-33 -46 -42 -52 -53 -35 -13 21
-138 50 -215 50 -231 0 -418 -161 -450 -389 -24 -170 55 -346 198 -441 26 -17
45 -34 43 -38 -3 -4 -22 -20 -44 -35 l-38 -28 -34 21 c-90 56 -188 198 -220
320 -19 72 -19 200 0 275 51 200 213 361 411 409 79 19 196 19 268 1z m2244
-33 c50 -33 86 -79 118 -149 25 -55 55 -83 90 -83 14 0 51 28 98 75 194 189
445 227 588 88 139 -135 101 -397 -84 -585 -99 -101 -100 -136 -5 -184 123
-63 187 -132 187 -203 0 -42 -31 -102 -72 -136 -50 -43 -164 -92 -253 -110
-44 -9 -88 -23 -97 -32 -22 -20 -23 -74 -3 -113 12 -23 12 -30 3 -30 -7 0
-120 107 -250 237 l-238 238 222 222 c194 194 221 225 221 253 0 41 -32 73
-73 73 -28 0 -59 -27 -253 -221 l-222 -221 -185 183 c-196 195 -217 209 -287
191 -41 -10 -112 -91 -168 -191 l-49 -88 -15 45 c-8 25 -14 88 -15 149 -1 94
2 110 24 150 33 59 78 83 146 76 28 -2 70 -14 92 -25 51 -26 103 -27 125 -3 9
9 23 53 32 97 18 89 67 203 110 253 62 74 144 91 213 44z m-902 -63 c39 -24
75 -69 110 -142 l27 -55 -41 -47 c-55 -63 -83 -139 -89 -246 -6 -93 13 -213
47 -299 l19 -49 -52 23 c-71 32 -173 56 -232 56 l-49 0 -161 160 c-141 139
-165 160 -193 160 -42 0 -72 -31 -72 -72 0 -28 16 -49 117 -150 100 -100 114
-118 97 -124 -205 -74 -343 -192 -431 -371 -26 -51 -51 -93 -57 -93 -25 0
-116 62 -149 101 -89 103 -45 211 122 298 118 61 120 83 16 193 -154 164 -207
354 -142 510 40 94 128 149 253 156 143 8 270 -47 397 -172 96 -94 129 -91
182 15 81 160 179 211 281 148z m-1345 -176 c47 -24 54 -32 54 -57 0 -28 -3
-30 -61 -42 -171 -35 -277 -160 -292 -345 l-7 -82 -32 27 c-18 15 -47 56 -64
92 -59 119 -37 256 56 349 59 58 126 85 216 85 63 0 85 -5 130 -27z m85 -295
c24 -75 55 -134 109 -207 44 -59 46 -65 29 -74 -42 -23 -128 -115 -152 -162
-38 -72 -38 -178 0 -255 36 -73 108 -142 199 -190 l74 -39 -332 -1 -331 0 -26
31 c-39 46 -56 84 -63 139 -13 115 86 221 245 260 48 12 77 47 69 83 -3 12
-17 54 -31 92 -28 76 -34 162 -15 228 20 73 110 146 181 147 23 0 29 -6 44
-52z m1838 -362 c-88 -160 -82 -362 16 -518 l29 -48 -89 0 c-78 0 -90 2 -90
17 0 75 -71 253 -134 335 l-36 47 16 78 c17 85 67 201 117 275 l32 48 87 -87
86 -86 -34 -61z m400 -305 c191 -191 244 -250 231 -255 -9 -3 -95 -6 -190 -6
l-173 0 -52 47 c-96 86 -137 185 -127 302 5 64 38 161 54 161 5 0 120 -112
257 -249z m-1093 213 c191 -56 345 -213 394 -401 8 -31 15 -61 15 -65 0 -4
-24 -8 -54 -8 -53 0 -54 0 -60 34 -4 19 -22 66 -41 104 -87 173 -289 276 -476
243 -175 -32 -317 -157 -363 -320 l-17 -61 -53 0 -53 0 8 43 c37 198 204 379
400 431 74 20 232 20 300 0z m-14 -269 c28 -14 68 -44 88 -67 35 -38 82 -125
72 -134 -2 -2 -138 -3 -301 -2 l-297 3 31 62 c42 84 112 140 205 164 50 13
146 1 202 -26z m1937 -445 c-1 -47 -7 -118 -13 -157 l-13 -73 -367 0 c-356 0
-368 -1 -389 -20 -30 -28 -30 -82 0 -110 21 -19 33 -20 369 -20 l348 0 -13
-42 c-47 -153 -140 -345 -236 -487 -196 -292 -459 -521 -775 -673 l-100 -48
-733 0 -733 0 -120 60 c-372 185 -665 469 -858 831 -52 98 -123 270 -136 327
l-7 32 1354 0 c1349 0 1354 0 1376 20 14 14 22 33 22 55 0 22 -8 41 -22 55
-22 20 -27 20 -1394 20 -812 0 -1375 4 -1378 9 -11 17 -40 276 -33 294 6 16
115 17 1929 15 l1923 -3 -1 -85z"></path>
        <path d="M2781 3874 c-24 -30 -26 -43 -10 -77 16 -35 49 -47 129 -47 86 0 124
25 122 81 -1 55 -28 69 -132 69 -84 0 -90 -1 -109 -26z"></path>
        <path d="M3024 3615 c-44 -18 -124 -111 -124 -144 0 -38 38 -71 80 -71 28 0
44 10 92 60 59 60 70 89 48 130 -15 28 -61 40 -96 25z"></path>
        <path d="M1855 4337 c-46 -39 -39 -77 25 -142 46 -47 60 -55 91 -55 44 0 72
28 72 71 0 24 -12 42 -54 84 -67 66 -96 75 -134 42z"></path>
        <path d="M1600 4240 c-17 -17 -20 -33 -20 -104 0 -79 2 -86 26 -105 30 -24 43
-26 78 -10 35 16 49 58 44 135 -3 55 -8 70 -27 85 -30 25 -76 24 -101 -1z"></path>
      </g>
    </symbol>
    <symbol version="1.0" xmlns="http://www.w3.org/2000/svg" preserveAspectRatio="xMidYMid meet" viewBox="0 0 512.000000 512.000000" id="icon5">
      <g transform="translate(0.000000,512.000000) scale(0.100000,-0.100000)" fill="#000000" stroke="none">
        <path d="M2300 5035 l0 -85 85 0 85 0 0 -128 0 -129 -123 -12 c-866 -84 -1608
-673 -1886 -1496 -63 -189 -98 -357 -113 -557 l-12 -158 -137 0 c-76 0 -145
-3 -154 -6 -22 -9 -45 -57 -45 -96 1 -132 70 -288 174 -393 77 -78 145 -120
246 -156 62 -22 81 -23 428 -27 l362 -4 -112 -93 c-72 -60 -116 -91 -122 -85
-6 6 -201 10 -493 10 l-483 0 0 -85 0 -85 425 0 425 0 0 -640 0 -640 -425 0
-425 0 0 -85 0 -85 476 0 c342 0 481 3 497 12 43 22 46 37 47 185 l0 142 1073
4 1072 3 65 22 c36 12 94 39 128 59 84 51 1161 944 1189 985 60 90 77 199 46
288 -11 30 -23 63 -27 72 -6 13 -2 18 21 23 101 20 136 31 203 63 103 50 213
159 263 262 37 74 66 185 67 248 0 39 -23 87 -45 96 -9 3 -78 6 -154 6 l-137
0 -12 158 c-15 200 -50 368 -113 557 -278 824 -1020 1412 -1886 1496 l-123 12
0 129 0 128 85 0 85 0 0 85 0 85 -260 0 -260 0 0 -85z m485 -525 c363 -42 715
-184 1017 -411 104 -78 305 -279 385 -384 235 -312 377 -678 412 -1065 6 -63
11 -127 11 -142 l0 -28 -2050 0 -2050 0 0 28 c0 15 5 79 11 142 35 387 177
753 412 1065 80 105 281 306 385 384 296 223 655 369 1005 410 104 12 358 12
462 1z m2143 -2247 c-18 -65 -49 -115 -107 -173 -65 -65 -144 -105 -233 -120
-87 -14 -3969 -14 -4056 0 -159 26 -300 148 -340 293 l-10 37 2378 0 2378 0
-10 -37z m-2184 -488 c90 -43 90 -187 -1 -223 -18 -7 -146 -12 -348 -14 -353
-4 -356 -4 -430 -69 -112 -99 -112 -279 0 -378 79 -69 51 -66 665 -66 l556 0
500 357 c275 197 518 365 539 374 97 40 214 -42 215 -152 0 -73 -23 -95 -590
-563 -300 -248 -566 -462 -592 -476 -100 -55 -97 -55 -1205 -55 l-1023 0 0
453 0 452 192 160 c105 88 201 166 211 174 54 39 75 40 685 41 511 0 598 -2
626 -15z m798 -285 l-420 -301 -512 3 -512 3 -24 28 c-31 36 -31 78 0 114 l24
28 339 5 c330 5 339 6 383 28 139 73 200 231 144 375 -6 16 31 17 497 17 l502
0 -421 -300z"></path>
        <path d="M2311 4334 c-292 -40 -589 -155 -821 -319 -68 -48 -210 -166 -210
-174 0 -4 26 -32 58 -63 l57 -57 65 55 c181 153 400 270 635 339 102 30 322
65 408 65 l57 0 0 85 0 85 -72 -1 c-40 -1 -120 -7 -177 -15z"></path>
        <path d="M1108 3662 c-25 -31 -61 -79 -79 -105 l-34 -49 25 -20 c13 -11 44
-31 69 -46 l44 -26 26 34 c14 19 47 61 74 94 l47 60 -27 29 c-16 16 -44 42
-63 57 l-36 29 -46 -57z"></path>
        <path d="M339 836 c-130 -46 -199 -197 -150 -328 66 -174 288 -221 419 -87 44
45 65 95 70 165 12 178 -168 311 -339 250z m146 -181 c53 -52 16 -139 -60
-139 -81 0 -111 101 -46 151 27 21 79 15 106 -12z"></path>
      </g>
    </symbol>
    <symbol version="1.0" xmlns="http://www.w3.org/2000/svg" preserveAspectRatio="xMidYMid meet" viewBox="0 0 512.000000 512.000000" id="icon6">
      <g transform="translate(0.000000,512.000000) scale(0.100000,-0.100000)" fill="#000000" stroke="none">
        <path d="M1401 5024 c-83 -22 -165 -71 -224 -133 -29 -31 -58 -63 -63 -72 -5
-9 -36 -20 -74 -27 -163 -29 -301 -142 -364 -298 -20 -48 -29 -58 -72 -78
-206 -97 -347 -308 -361 -541 -7 -117 14 -214 68 -325 34 -68 59 -101 124
-165 l82 -80 -14 -40 c-8 -22 -17 -74 -20 -115 -9 -127 36 -257 122 -349 l44
-47 -6 -74 c-18 -235 134 -445 363 -505 32 -8 58 -16 59 -17 5 -9 175 -492
172 -493 -26 -11 -128 -112 -171 -168 l-57 -75 -37 9 c-303 67 -406 89 -429
89 -58 0 -108 -22 -154 -69 -55 -54 -73 -107 -67 -193 4 -52 2 -58 -15 -58
-111 0 -227 -123 -227 -240 0 -117 116 -240 227 -240 17 0 19 -6 15 -58 -6
-86 12 -139 67 -193 46 -47 96 -69 154 -69 23 0 126 22 429 89 l37 9 61 -80
c175 -226 459 -353 749 -335 126 8 2862 431 2921 452 70 25 121 59 176 117
191 202 151 538 -81 685 -25 15 -45 32 -45 36 0 4 18 31 39 60 92 122 166 300
195 466 18 108 21 375 6 486 -22 154 -72 293 -153 431 -69 118 -254 307 -340
348 -112 53 -236 44 -340 -25 l-48 -31 -40 28 c-22 15 -63 35 -92 45 -47 16
-52 20 -50 46 2 15 10 107 19 203 9 96 13 197 9 224 -12 96 -77 185 -170 234
-44 23 -62 26 -145 26 -83 0 -101 -3 -145 -26 -91 -48 -156 -136 -170 -230 -6
-38 15 -352 30 -439 3 -22 -1 -26 -39 -37 -23 -6 -65 -27 -94 -46 -61 -43 -67
-37 -64 54 3 77 -18 164 -57 237 l-29 53 29 53 c148 275 -1 612 -308 692 -31
8 -75 15 -98 15 -39 0 -41 1 -73 64 -44 84 -131 167 -219 208 -37 17 -91 53
-119 79 -81 76 -209 129 -309 129 -39 0 -41 1 -73 64 -99 191 -334 296 -541
240z m268 -184 c103 -55 141 -116 175 -281 l5 -25 73 14 c70 15 168 11 168 -6
0 -4 -26 -18 -57 -31 -58 -26 -161 -113 -189 -160 -13 -23 -27 -29 -82 -39
-162 -27 -303 -142 -366 -298 -20 -48 -29 -58 -72 -78 -206 -97 -347 -308
-361 -541 -7 -117 14 -214 68 -325 34 -68 59 -101 124 -165 l82 -80 -14 -40
c-8 -22 -17 -74 -20 -115 -9 -127 36 -257 122 -349 l43 -46 -5 -80 c-9 -128
34 -257 114 -346 20 -22 34 -41 32 -42 -2 -2 -32 -15 -67 -29 l-63 -27 -8 22
c-4 12 -50 140 -101 283 l-92 261 -74 6 c-216 16 -348 208 -285 415 11 39 21
72 21 74 0 3 -25 22 -55 42 -89 62 -146 169 -145 275 1 58 18 107 65 183 20
32 35 61 34 62 -2 2 -33 18 -68 36 -292 146 -360 523 -138 758 59 61 113 96
200 127 l61 22 13 57 c25 111 86 189 183 235 44 20 71 26 134 27 l79 0 22 46
c33 69 62 105 108 137 105 72 226 79 336 21z m720 -480 c85 -46 138 -116 160
-211 5 -24 12 -56 15 -70 l6 -26 62 14 c87 21 165 11 240 -29 66 -35 97 -67
136 -142 22 -43 26 -64 26 -136 0 -98 -21 -150 -94 -232 l-42 -48 42 -47 c54
-61 87 -128 95 -189 l7 -49 -79 -1 c-119 -1 -171 -29 -313 -173 -84 -85 -129
-140 -166 -203 l-52 -88 -47 137 -47 136 18 66 c49 185 144 353 279 493 l55
56 -47 59 c-26 32 -48 60 -51 63 -2 3 -39 -32 -83 -78 -90 -95 -181 -228 -230
-337 -19 -41 -36 -75 -39 -75 -3 0 -34 63 -69 139 -56 124 -209 410 -251 471
l-16 23 -65 -43 -65 -43 64 -111 c81 -141 197 -374 191 -381 -3 -3 -25 2 -50
10 -80 27 -220 45 -345 45 l-124 0 6 -47 c3 -27 7 -62 10 -79 l4 -31 148 -6
c158 -6 236 -21 339 -67 117 -53 124 -62 191 -243 71 -192 97 -275 90 -282 -3
-3 -29 5 -59 19 -103 45 -248 78 -397 91 l-82 8 0 -81 0 -80 76 -7 c171 -16
362 -72 448 -133 l38 -27 2 -240 c2 -205 6 -251 23 -317 11 -43 20 -78 19 -78
-1 0 -119 18 -261 40 -143 22 -274 40 -292 40 -58 0 -144 40 -193 89 -91 92
-119 204 -81 329 11 39 21 72 21 74 0 3 -25 22 -55 42 -89 62 -146 169 -145
275 1 58 18 107 65 183 20 32 35 61 34 62 -2 2 -33 18 -68 36 -292 146 -360
523 -138 758 59 61 113 96 200 127 l61 22 13 57 c25 111 86 189 183 235 44 20
71 26 134 27 l79 0 22 46 c33 69 62 105 108 137 105 72 226 79 336 21z m1372
-620 c27 -14 46 -34 61 -64 l21 -43 -38 -412 c-21 -232 -34 -416 -29 -420 5
-4 30 -16 56 -25 58 -21 94 -49 84 -65 -21 -33 -145 -71 -236 -71 -91 0 -215
38 -236 71 -10 16 26 44 84 65 26 9 51 21 56 25 5 4 -8 188 -29 420 l-38 412
21 43 c38 78 139 106 223 64z m-724 -715 c67 -28 67 -32 17 -90 -99 -117 -181
-283 -227 -463 -20 -81 -22 -109 -22 -392 0 -193 4 -321 12 -347 6 -24 10 -43
8 -43 -16 0 -270 42 -276 46 -13 7 -47 130 -60 214 -18 118 -7 426 19 523 45
167 137 323 262 448 114 112 183 139 267 104z m1430 -6 c55 -27 187 -156 242
-238 59 -86 115 -208 143 -311 21 -77 23 -106 23 -310 0 -203 -2 -233 -23
-310 -48 -179 -202 -430 -263 -430 -28 0 -130 18 -136 24 -2 1 8 29 22 60 30
68 61 184 75 281 13 94 13 494 -1 591 -25 182 -115 400 -223 541 -31 40 -56
75 -56 78 0 12 87 45 119 45 19 0 54 -9 78 -21z m-1053 -20 c11 -59 7 -97 -12
-103 -28 -9 -94 -78 -108 -113 -18 -41 -18 -85 -1 -126 16 -38 83 -101 133
-124 l34 -17 -7 -75 c-13 -129 -10 -697 5 -775 7 -37 11 -70 10 -72 -8 -8
-463 69 -470 79 -24 38 -33 159 -33 422 1 260 2 286 24 365 44 166 127 313
245 437 60 64 147 133 166 133 4 0 10 -14 14 -31z m609 0 c110 -73 248 -257
307 -412 62 -159 65 -184 64 -512 0 -275 -2 -306 -21 -377 -33 -118 -82 -228
-101 -228 -10 0 -155 21 -324 47 l-307 47 -10 45 c-26 122 -33 262 -28 539 2
158 8 297 12 310 7 20 14 22 69 22 140 1 275 49 344 124 71 77 69 158 -5 237
-25 26 -54 51 -64 54 -20 7 -25 44 -13 104 8 39 19 39 77 0z m-788 -1534 c770
-119 1416 -220 1435 -225 117 -32 210 -155 210 -280 0 -125 -93 -248 -210
-280 -19 -5 -667 -107 -1440 -226 -1323 -203 -1411 -216 -1505 -211 -189 10
-333 75 -470 212 -91 91 -144 175 -182 290 -23 71 -26 96 -26 215 0 119 3 144
26 215 38 115 91 199 182 290 146 146 299 211 505 214 52 1 497 -64 1475 -214z
m-2502 -145 c100 -22 187 -42 193 -44 9 -3 9 -14 0 -40 l-11 -36 -197 0 c-185
0 -199 1 -218 20 -40 40 -15 140 35 140 8 0 97 -18 198 -40z m147 -360 l0 -80
-295 0 -296 0 -24 25 c-16 15 -25 36 -25 55 0 19 9 40 25 55 l24 25 296 0 295
0 0 -80z m46 -276 c9 -26 9 -37 0 -40 -23 -8 -376 -84 -391 -84 -29 0 -55 38
-55 80 0 27 7 47 20 60 19 19 33 20 218 20 l197 0 11 -36z"></path>
        <path d="M1680 960 l0 -400 80 0 80 0 0 400 0 400 -80 0 -80 0 0 -400z"></path>
        <path d="M2320 960 l0 -400 80 0 80 0 0 400 0 400 -80 0 -80 0 0 -400z"></path>
        <path d="M2960 960 l0 -400 80 0 80 0 0 400 0 400 -80 0 -80 0 0 -400z"></path>
        <path d="M3600 960 l0 -240 80 0 80 0 0 240 0 240 -80 0 -80 0 0 -240z"></path>
        <path d="M4240 960 l0 -160 80 0 80 0 0 160 0 160 -80 0 -80 0 0 -160z"></path>
      </g>
    </symbol>
    <symbol id="magic-wand" xmlns="http://www.w3.org/2000/svg" viewBox="0 0 24 24">
      <path d="m18 9.064a3.049 3.049 0 0 0 -.9-2.164 3.139 3.139 0 0 0 -4.334 0l-11.866 11.869a3.064 3.064 0 0 0 4.33 4.331l11.87-11.869a3.047 3.047 0 0 0 .9-2.167zm-14.184 12.624a1.087 1.087 0 0 1 -1.5 0 1.062 1.062 0 0 1 0-1.5l7.769-7.77 1.505 1.505zm11.872-11.872-2.688 2.689-1.5-1.505 2.689-2.688a1.063 1.063 0 1 1 1.5 1.5zm-10.825-6.961 1.55-.442.442-1.55a1.191 1.191 0 0 1 2.29 0l.442 1.55 1.55.442a1.191 1.191 0 0 1 0 2.29l-1.55.442-.442 1.55a1.191 1.191 0 0 1 -2.29 0l-.442-1.55-1.55-.442a1.191 1.191 0 0 1 0-2.29zm18.274 14.29-1.55.442-.442 1.55a1.191 1.191 0 0 1 -2.29 0l-.442-1.55-1.55-.442a1.191 1.191 0 0 1 0-2.29l1.55-.442.442-1.55a1.191 1.191 0 0 1 2.29 0l.442 1.55 1.55.442a1.191 1.191 0 0 1 0 2.29zm-5.382-14.645 1.356-.387.389-1.358a1.042 1.042 0 0 1 2 0l.387 1.356 1.356.387a1.042 1.042 0 0 1 0 2l-1.356.387-.387 1.359a1.042 1.042 0 0 1 -2 0l-.387-1.355-1.358-.389a1.042 1.042 0 0 1 0-2z"></path>
    </symbol>
    <symbol xmlns="http://www.w3.org/2000/svg" xmlns:xlink="http://www.w3.org/1999/xlink" version="1.1" id="menu-burger" x="0px" y="0px" xml:space="preserve" viewBox="0 0 512 512">
      <g>
        <path d="M480,224H32c-17.673,0-32,14.327-32,32s14.327,32,32,32h448c17.673,0,32-14.327,32-32S497.673,224,480,224z"></path>
        <path d="M32,138.667h448c17.673,0,32-14.327,32-32s-14.327-32-32-32H32c-17.673,0-32,14.327-32,32S14.327,138.667,32,138.667z"></path>
        <path d="M480,373.333H32c-17.673,0-32,14.327-32,32s14.327,32,32,32h448c17.673,0,32-14.327,32-32S497.673,373.333,480,373.333z"></path>
      </g>
    </symbol>
    <symbol xmlns="http://www.w3.org/2000/svg" xmlns:xlink="http://www.w3.org/1999/xlink" version="1.1" id="cross" x="0px" y="0px" xml:space="preserve" viewBox="0 0 512.021 512.021">
      <g>
        <path d="M301.258,256.01L502.645,54.645c12.501-12.501,12.501-32.769,0-45.269c-12.501-12.501-32.769-12.501-45.269,0l0,0   L256.01,210.762L54.645,9.376c-12.501-12.501-32.769-12.501-45.269,0s-12.501,32.769,0,45.269L210.762,256.01L9.376,457.376   c-12.501,12.501-12.501,32.769,0,45.269s32.769,12.501,45.269,0L256.01,301.258l201.365,201.387   c12.501,12.501,32.769,12.501,45.269,0c12.501-12.501,12.501-32.769,0-45.269L301.258,256.01z"></path>
      </g>
    </symbol>
  </symbol>
</svg>